<?xml version="1.0" encoding="utf-8"?>
<!-- Generator: Adobe Illustrator 24.1.1, SVG Export Plug-In . SVG Version: 6.00 Build 0)  -->
<svg version="1.1" id="Layer_1" xmlns="http://www.w3.org/2000/svg" xmlns:xlink="http://www.w3.org/1999/xlink" x="0px" y="0px"
	 viewBox="0 0 512 512" style="enable-background:new 0 0 512 512;" xml:space="preserve">
<style type="text/css">
	.st0{fill:#CECECE;}
</style>
<g>
	<g>
		<path class="st0" d="M426.7,51.2h-51.2V25.6C375.5,11.5,364,0,349.9,0H162.1c-14.1,0-25.6,11.5-25.6,25.6v25.6H85.3
			c-14.1,0-25.6,11.5-25.6,25.6v59.7c0,4.7,3.8,8.5,8.5,8.5h25.6v341.3c0,14.1,11.5,25.6,25.6,25.6h273.1
			c14.1,0,25.6-11.5,25.6-25.6V145.1h25.6c4.7,0,8.5-3.8,8.5-8.5V76.8C452.3,62.7,440.8,51.2,426.7,51.2z M153.6,25.6
			c0-4.7,3.8-8.5,8.5-8.5h187.7c4.7,0,8.5,3.8,8.5,8.5v25.6H153.6V25.6z M196.3,469.3c0,4.7-3.8,8.5-8.5,8.5h-51.2
			c-4.7,0-8.5-3.8-8.5-8.5V170.7c0-4.7,3.8-8.5,8.5-8.5h51.2c4.7,0,8.5,3.8,8.5,8.5V469.3z M290.1,469.3c0,4.7-3.8,8.5-8.5,8.5
			h-51.2c-4.7,0-8.5-3.8-8.5-8.5V170.7c0-4.7,3.8-8.5,8.5-8.5h51.2c4.7,0,8.5,3.8,8.5,8.5V469.3z M384,469.3c0,4.7-3.8,8.5-8.5,8.5
			h-51.2c-4.7,0-8.5-3.8-8.5-8.5V170.7c0-4.7,3.8-8.5,8.5-8.5h51.2c4.7,0,8.5,3.8,8.5,8.5V469.3z"/>
	</g>
</g>
</svg>
