<?xml version="1.0" encoding="utf-8"?>
<!-- Generator: Adobe Illustrator 24.1.1, SVG Export Plug-In . SVG Version: 6.00 Build 0)  -->
<svg version="1.1" id="Layer_1" xmlns="http://www.w3.org/2000/svg" xmlns:xlink="http://www.w3.org/1999/xlink" x="0px" y="0px"
	 viewBox="0 0 512 512" style="enable-background:new 0 0 512 512;" xml:space="preserve">
<style type="text/css">
	.st0{fill:#CECECE;}
</style>
<g>
	<g>
		<path class="st0" d="M256,0C114.6,0,0,114.6,0,256s114.6,256,256,256s256-114.6,256-256S397.4,0,256,0z M373.2,304.5L262.2,423.9
			c-3.2,3.4-8.6,3.6-12.1,0.4c-0.1-0.1-0.3-0.3-0.4-0.4L138.8,304.5c-3.2-3.5-3-8.9,0.5-12.1c1.6-1.5,3.6-2.3,5.8-2.3h59.7V93.9
			c0-4.7,3.8-8.5,8.5-8.5h85.3c4.7,0,8.5,3.8,8.5,8.5v196.3h59.7c4.7,0,8.5,3.8,8.5,8.6C375.4,300.8,374.6,302.9,373.2,304.5z"/>
	</g>
</g>
</svg>
