<?xml version="1.0" encoding="utf-8"?>
<!-- Generator: Adobe Illustrator 24.1.1, SVG Export Plug-In . SVG Version: 6.00 Build 0)  -->
<svg version="1.1" id="Capa_1" xmlns="http://www.w3.org/2000/svg" xmlns:xlink="http://www.w3.org/1999/xlink" x="0px" y="0px"
	 viewBox="0 0 512 512" style="enable-background:new 0 0 512 512;" xml:space="preserve">
<style type="text/css">
	.st0{fill:#CECECE;}
</style>
<path class="st0" d="M389.5,0c-32.7,0-63.5,12.8-86.6,35.9l-95.4,95.4c7.3-1,14.6-2.1,22-2.1c20.6,0,40.7,4,59.2,11.4l59.4-59.4
	c11.1-11,25.8-17.1,41.4-17.1c32.3,0,58.5,26.2,58.5,58.5c0,15.6-6.1,30.3-17.1,41.4l-107,107c-22.1,22.1-60.6,22.1-82.8,0
	l-45.2,45.3c23.1,23.1,53.9,35.8,86.6,35.8c32.7,0,63.5-12.8,86.6-35.9l107-107c23.1-23.1,35.9-53.9,35.9-86.6C512,55,457,0,389.5,0
	L389.5,0z"/>
<path class="st0" d="M222.8,372l-58.9,58.9c-11.1,11-25.8,17.1-41.4,17.1C90.3,448,64,421.8,64,389.5c0-15.6,6.1-30.3,17.1-41.4
	l107-107c22.1-22.1,60.6-22.1,82.8,0l45.2-45.3c-46.3-46.2-126.9-46.2-173.2,0l-107,107C12.7,326,0,356.8,0,389.5
	C0,457,55,512,122.5,512c32.7,0,63.5-12.8,86.6-35.9l94.1-94.1c-6.9,0.9-13.7,2-20.8,2C261.6,384,241.4,379.8,222.8,372L222.8,372z"
	/>
</svg>
