<?xml version="1.0" encoding="utf-8"?>
<!-- Generator: Adobe Illustrator 24.1.1, SVG Export Plug-In . SVG Version: 6.00 Build 0)  -->
<svg version="1.1" id="Layer_1" xmlns="http://www.w3.org/2000/svg" xmlns:xlink="http://www.w3.org/1999/xlink" x="0px" y="0px"
	 viewBox="0 0 512 512" style="enable-background:new 0 0 512 512;" xml:space="preserve">
<style type="text/css">
	.st0{fill:#CECECE;}
</style>
<g>
	<g>
		<path class="st0" d="M439.5,61.9c-4.6-2.7-10.3-2.7-14.9,0c-17.9,9.9-38,15.1-58.5,14.9c-29.9,0.7-58.8-10.7-80.2-31.6
			C261.1,21,227.7,7.8,193.1,8.5c-27.9-0.2-55.1,8.2-77.9,24.2v-7.2C115.2,11.5,103.7,0,89.6,0S64,11.5,64,25.6v460.8
			c0,14.1,11.5,25.6,25.6,25.6c14.1,0,25.6-11.5,25.6-25.6V264.5c2.8-0.3,5.5-1.3,7.8-3.1c20.3-15,44.9-22.9,70.1-22.5
			c29.9-0.7,58.9,10.7,80.4,31.6c24.7,24.2,58,37.4,92.6,36.7c26.5,0.3,52.4-7.3,74.6-21.8c4.7-3.3,7.5-8.7,7.3-14.5V76.8
			C448.1,70.6,444.8,64.9,439.5,61.9z"/>
	</g>
</g>
</svg>
