<?xml version="1.0" encoding="utf-8"?>
<!-- Generator: Adobe Illustrator 24.1.1, SVG Export Plug-In . SVG Version: 6.00 Build 0)  -->
<svg version="1.1" id="Layer_1" xmlns="http://www.w3.org/2000/svg" xmlns:xlink="http://www.w3.org/1999/xlink" x="0px" y="0px"
	 viewBox="0 0 512 512" style="enable-background:new 0 0 512 512;" xml:space="preserve">
<style type="text/css">
	.st0{fill:#CECECE;}
</style>
<g>
	<g>
		<path class="st0" d="M256,0C114.6,0,0,114.6,0,256s114.6,256,256,256s256-114.6,256-256S397.4,0,256,0z M307.2,413.9
			c0,14.1-11.5,25.6-25.6,25.6h-51.2c-14.1,0-25.6-11.5-25.6-25.6v-42.7c0-14.1,11.5-25.6,25.6-25.6h51.2
			c14.1,0,25.6,11.5,25.6,25.6V413.9z M323,100l-14.7,196.3c-1,13.4-12.2,23.8-25.6,23.7h-53.5c-13.4,0-24.6-10.3-25.6-23.7
			L189.1,100c-1-14.1,9.6-26.4,23.7-27.4c0.6,0,1.3-0.1,1.9-0.1h82.7c14.1,0,25.6,11.4,25.7,25.5C323.1,98.7,323,99.4,323,100z"/>
	</g>
</g>
</svg>
