<?xml version="1.0" encoding="utf-8"?>
<!-- Generator: Adobe Illustrator 24.1.1, SVG Export Plug-In . SVG Version: 6.00 Build 0)  -->
<svg version="1.1" id="Layer_1" xmlns="http://www.w3.org/2000/svg" xmlns:xlink="http://www.w3.org/1999/xlink" x="0px" y="0px"
	 viewBox="0 0 512 512" style="enable-background:new 0 0 512 512;" xml:space="preserve">
<style type="text/css">
	.st0{fill:#CECECE;}
</style>
<g id="Page-1">
	<g id="_x30_37---Sync-Phone" transform="translate(-1)">
		<path id="Shape" class="st0" d="M415.9,172.1v-22.2c0-1.7,1-3.2,2.4-3.9c1.5-0.7,3.2-0.6,4.6,0.4l85.2,62c1.1,0.8,1.8,2.2,1.8,3.6
			c0,1.4-0.7,2.7-1.8,3.6l-85.2,62c-1.3,1-3.1,1.1-4.6,0.4c-1.5-0.7-2.4-2.2-2.4-3.9v-22.3c0-2.4-1.9-4.4-4.4-4.4
			c-37.5-0.2-135.2-3.9-144.9-98.9c-0.2-1.9,0.9-3.6,2.6-4.4c1.7-0.8,3.7-0.4,5,1c11.6,13,37.1,31.6,88.7,31.6h48.6
			C413.9,176.6,415.9,174.6,415.9,172.1z"/>
		<path id="Shape_1_" class="st0" d="M362.9,110.3v22.2c0,1.7-1,3.2-2.4,3.9c-1.5,0.7-3.2,0.6-4.6-0.4l-85.2-62
			c-1.1-0.8-1.8-2.2-1.8-3.6c0-1.4,0.7-2.7,1.8-3.6l85.2-62c1.3-1,3.1-1.1,4.6-0.4s2.4,2.2,2.4,3.9v22.3c0,2.4,1.9,4.4,4.4,4.4
			c37.5,0.2,135.2,3.9,144.9,98.9c0.2,1.9-0.9,3.6-2.6,4.4s-3.7,0.4-5-1c-11.6-13-37.1-31.6-88.7-31.6h-48.6
			C364.9,105.9,362.9,107.9,362.9,110.3z"/>
		<path id="Shape_2_" class="st0" d="M213,300c-48.9-48.9-59.9-97.7-62.4-117.3c-0.7-5.4,1.2-10.8,5-14.7l39.5-39.5
			c5.8-5.8,6.8-14.9,2.5-21.8l-63-97.8c-4.8-7.7-14.7-10.5-22.9-6.4L10.8,50C4.2,53.2,0.3,60.2,1.1,67.5
			c5.3,50.3,27.2,174,148.8,295.6s245.2,143.5,295.6,148.8c7.3,0.7,14.3-3.1,17.5-9.7l47.6-101.1c4.1-8.1,1.3-18-6.4-22.8
			l-97.8-62.9c-7-4.4-16-3.3-21.8,2.5L345,357.3c-3.8,3.9-9.3,5.7-14.7,5C310.8,359.9,261.9,348.9,213,300L213,300z"/>
	</g>
</g>
</svg>
