<?xml version="1.0" encoding="utf-8"?>
<!-- Generator: Adobe Illustrator 24.1.1, SVG Export Plug-In . SVG Version: 6.00 Build 0)  -->
<svg version="1.1" xmlns="http://www.w3.org/2000/svg" xmlns:xlink="http://www.w3.org/1999/xlink" x="0px" y="0px"
	 viewBox="0 0 512 512" style="enable-background:new 0 0 512 512;" xml:space="preserve">
<style type="text/css">
	.st0{fill:#CECECE;}
	.st1{fill:#EDDC88;}
</style>
<g id="Layer_1">
	<g>
		<g>
			<path class="st0" d="M255.9,72.9c-101.1,0-183.1,82-183.1,183.1s82,183.1,183.1,183.1S439,357.1,439,256S357,72.9,255.9,72.9z
				 M373.2,304.5l-111,119.4c-3.2,3.4-8.6,3.6-12.1,0.4l-0.4-0.4L138.8,304.5c-3.2-3.5-3-8.9,0.5-12.1c1.6-1.5,3.6-2.3,5.8-2.3h14.8
				c-3.8-10.7-5.8-22.1-5.8-34.1c0-37.7,20.4-70.6,50.8-88.2V93.9c0-4.7,3.8-8.5,8.5-8.5h85.3c4.7,0,8.5,3.8,8.5,8.5v73.8
				c30.4,17.6,50.9,50.6,50.9,88.3c0,12-2.1,23.5-5.9,34.2h14.7c4.7,0,8.5,3.8,8.5,8.6C375.4,300.8,374.6,302.9,373.2,304.5z"/>
			<path class="st0" d="M256,0C114.6,0,0,114.6,0,256s114.6,256,256,256s256-114.6,256-256S397.4,0,256,0z M255.9,439.1
				c-101.1,0-183.1-82-183.1-183.1s82-183.1,183.1-183.1S439,154.9,439,256S357,439.1,255.9,439.1z"/>
		</g>
	</g>
</g>
<g id="Layer_2">
	<path class="st1" d="M255.9,72.9c-101.1,0-183.1,82-183.1,183.1s82,183.1,183.1,183.1S439,357.1,439,256S357,72.9,255.9,72.9z
		 M373.2,304.5l-111,119.4c-3.2,3.4-8.6,3.6-12.1,0.4l-0.4-0.4L138.8,304.5c-3.2-3.5-3-8.9,0.5-12.1c1.6-1.5,3.6-2.3,5.8-2.3h14.8
		c-3.8-10.7-5.8-22.1-5.8-34.1c0-37.7,20.4-70.6,50.8-88.2V93.9c0-4.7,3.8-8.5,8.5-8.5h85.3c4.7,0,8.5,3.8,8.5,8.5v73.8
		c30.4,17.6,50.9,50.6,50.9,88.3c0,12-2.1,23.5-5.9,34.2h14.7c4.7,0,8.5,3.8,8.5,8.6C375.4,300.8,374.6,302.9,373.2,304.5z"/>
	<path class="st0" d="M204.8,167.8v122.3h-45c-3.8-10.7-5.8-22.1-5.8-34.1C154,218.3,174.4,185.4,204.8,167.8z"/>
	<path class="st0" d="M358,256c0,12-2.1,23.5-5.9,34.2h-45V167.7C337.5,185.3,358,218.3,358,256z"/>
</g>
</svg>
