<?xml version="1.0" encoding="utf-8"?>
<!-- Generator: Adobe Illustrator 24.1.1, SVG Export Plug-In . SVG Version: 6.00 Build 0)  -->
<svg version="1.1" id="Capa_1" xmlns="http://www.w3.org/2000/svg" xmlns:xlink="http://www.w3.org/1999/xlink" x="0px" y="0px"
	 viewBox="0 0 512 512" style="enable-background:new 0 0 512 512;" xml:space="preserve">
<style type="text/css">
	.st0{fill:#CECECE;}
</style>
<g>
	<g>
		<path class="st0" d="M317.6,45.5l11-24.7c3.3-7.5,0-16.2-7.5-19.5c-7.5-3.3-16.2,0-19.5,7.5l-15.8,35.5h-59.6L210.4,8.8
			c-3.3-7.5-12-10.8-19.5-7.5c-7.5,3.3-10.8,12-7.5,19.5l11,24.7c-29.4,5.8-51.7,31.7-51.7,62.8v24.6h226.5v-24.6
			C369.2,77.2,347,51.3,317.6,45.5z"/>
	</g>
</g>
<g>
	<g>
		<path class="st0" d="M497.2,260.9h-88.6v-30.7c44.6-7.1,78.8-45.8,78.8-92.4v-19.7c0-8.2-6.6-14.8-14.8-14.8s-14.8,6.6-14.8,14.8
			v19.7c0,30.2-21,55.6-49.2,62.3v-13c0-13.6-11-24.6-24.6-24.6H270.8v172.3c0,8.2-6.6,14.8-14.8,14.8c-8.2,0-14.8-6.6-14.8-14.8
			V162.5H128c-13.6,0-24.6,11-24.6,24.6v13c-28.2-6.7-49.2-32.1-49.2-62.3v-19.7c0-8.2-6.6-14.8-14.8-14.8s-14.8,6.6-14.8,14.8v19.7
			c0,46.6,34.2,85.3,78.8,92.4v30.7H14.8c-8.2,0-14.8,6.6-14.8,14.8s6.6,14.8,14.8,14.8h88.6v30.7c-44.6,7.1-78.8,45.8-78.8,92.4
			v19.7c0,8.2,6.6,14.8,14.8,14.8s14.8-6.6,14.8-14.8v-19.7c0-30.2,21-55.6,49.2-62.3v8.1c0,84.2,68.5,152.6,152.6,152.6
			s152.6-68.5,152.6-152.6v-8.1c28.2,6.7,49.2,32.1,49.2,62.3v19.7c0,8.2,6.6,14.8,14.8,14.8s14.8-6.6,14.8-14.8v-19.7
			c0-46.6-34.2-85.3-78.8-92.4v-30.7h88.6c8.2,0,14.8-6.6,14.8-14.8S505.4,260.9,497.2,260.9z"/>
	</g>
</g>
</svg>
