<?xml version="1.0" encoding="utf-8"?>
<!-- Generator: Adobe Illustrator 24.1.1, SVG Export Plug-In . SVG Version: 6.00 Build 0)  -->
<svg version="1.1" xmlns="http://www.w3.org/2000/svg" xmlns:xlink="http://www.w3.org/1999/xlink" x="0px" y="0px"
	 viewBox="0 0 40 40" style="enable-background:new 0 0 40 40;" xml:space="preserve">
<style type="text/css">
	.st0{fill:none;}
	.st1{display:none;fill:#CECECE;}
	.st2{font-family:'SitkaText-Bold';}
	.st3{font-size:53px;}
	.st4{font-family:'SitkaText-Italic';}
	.st5{font-family:'SitkaText';}
	.st6{font-size:48px;}
	.st7{font-family:'SitkaHeading';}
	.st8{font-size:36px;}
	.st9{font-family:'Consolas-Bold';}
	.st10{font-size:24px;}
	.st11{letter-spacing:-2;}
	.st12{letter-spacing:1;}
	.st13{fill:#64CC66;}
	.st14{fill:#5B90C4;}
	.st15{fill:#CC5A5A;}
	.st16{fill:none;stroke:#000000;stroke-width:0.25;stroke-miterlimit:10;}
</style>
<g id="Layer_1">
	<rect class="st0" width="40" height="40"/>
	<text transform="matrix(1 0 0 1 2.1216 36.4629)" class="st1 st2 st3">B</text>
	<rect class="st0" width="40" height="40"/>
	<text transform="matrix(1 0 0 1 10.1538 36.4629)" class="st1 st4 st3">I</text>
	<rect class="st0" width="40" height="40"/>
	<text transform="matrix(1 0 0 1 2.4004 33.0234)" class="st1 st5 st6" style="text-decoration: underline;">U</text>
	<rect class="st0" width="40" height="40"/>
	<text transform="matrix(1 0 0 1 5.1016 36.4629)" class="st1 st5 st3" style="text-decoration: line-through;">S</text>
	<rect class="st0" width="40" height="40"/>
	<text transform="matrix(1 0 0 1 9.9185 36.4629)" class="st1 st2 st3">!</text>
	<rect y="8" class="st0" width="40" height="40"/>
	<text transform="matrix(1 0 0 1 14.1201 32.4082)" class="st1 st7 st8">t</text>
	<rect y="11" class="st0" width="40" height="40"/>
	<text transform="matrix(1 0 0 1 2.5591 27.5596)" class="st1 st9 st10 st11">&lt;/&gt;</text>
	<rect class="st0" width="40" height="40"/>
	<text transform="matrix(1 0 0 1 9.9185 36.4629)" class="st1 st2 st3 st12">!</text>
	<rect class="st0" width="40" height="40"/>
	<text transform="matrix(1 0 0 1 9.9185 36.4629)" class="st1 st2 st3 st12">!</text>
	<rect class="st0" width="40" height="40"/>
	<text transform="matrix(1 0 0 1 9.9185 36.4629)" class="st1 st2 st3">!</text>
	<rect class="st0" width="40" height="40"/>
	<text transform="matrix(1 0 0 1 9.9185 36.4629)" class="st1 st2 st3 st12">!</text>
</g>
<g id="Layer_3">
	<circle class="st13" cx="26" cy="25" r="10"/>
	<circle class="st14" cx="14" cy="25" r="10"/>
	<circle class="st15" cx="20" cy="15" r="10"/>
</g>
<g id="Layer_2">
	<line class="st16" x1="-3" y1="33" x2="-28" y2="33"/>
	<line class="st16" x1="-3" y1="8" x2="-28" y2="8"/>
</g>
</svg>
