<?xml version="1.0" encoding="utf-8"?>
<!-- Generator: Adobe Illustrator 24.1.1, SVG Export Plug-In . SVG Version: 6.00 Build 0)  -->
<svg version="1.1" xmlns="http://www.w3.org/2000/svg" xmlns:xlink="http://www.w3.org/1999/xlink" x="0px" y="0px"
	 viewBox="0 0 40 40" style="enable-background:new 0 0 40 40;" xml:space="preserve">
<style type="text/css">
	.st0{display:none;}
	.st1{display:inline;fill:none;}
	.st2{display:inline;fill:#CECECE;}
	.st3{display:none;fill:none;stroke:#CECECE;stroke-width:2;stroke-linecap:round;stroke-miterlimit:10;}
	.st4{display:none;fill:#CECECE;}
	.st5{display:none;fill:none;stroke:#CECECE;stroke-width:2.5;stroke-miterlimit:10;}
	.st6{display:inline;opacity:0.33;fill:#CECECE;}
	.st7{display:inline;fill:#FFDFBA;}
	.st8{display:inline;fill:#91A1F2;}
	.st9{display:inline;fill:#FFEBD2;}
	.st10{display:inline;fill:#665244;}
	.st11{display:inline;fill:#FFD6A6;}
	.st12{display:inline;fill:#8C7260;}
	.st13{display:inline;fill:#FFF3E4;}
	.st14{display:inline;fill:#B5C1EA;}
	.st15{display:inline;fill:#586BF9;}
	.st16{display:inline;fill:#B79076;}
	.st17{display:inline;fill:#C69E8D;}
	.st18{display:inline;fill:#7A6D67;}
	.st19{fill:#CECECE;}
	.st20{fill:none;stroke:#C64242;stroke-width:3;stroke-linecap:round;stroke-miterlimit:10;}
	.st21{display:inline;fill:none;stroke:#CECECE;stroke-width:2;stroke-miterlimit:10;}
	.st22{display:inline;fill:none;stroke:#CECECE;stroke-width:4;stroke-linecap:round;stroke-miterlimit:10;}
	.st23{display:inline;fill:none;stroke:#CECECE;stroke-width:3;stroke-linecap:round;stroke-miterlimit:10;}
	.st24{display:inline;fill:#75B6CC;}
	.st25{display:inline;fill:#63E58E;}
	.st26{display:inline;fill:#D8CF9A;}
	.st27{display:inline;fill:#C15D49;}
	.st28{display:inline;fill:#543B38;}
	.st29{display:inline;fill:#C9976B;}
	.st30{display:inline;fill:#E2C8B5;}
	.st31{display:inline;}
	.st32{fill:#6D5F54;}
	.st33{fill:none;stroke:#CECECE;stroke-miterlimit:10;}
	.st34{fill:none;stroke:#CECECE;stroke-miterlimit:10;stroke-dasharray:2.9394,2.9394;}
	.st35{fill:none;stroke:#CECECE;stroke-width:1.5;stroke-linecap:round;stroke-miterlimit:10;}
	.st36{display:inline;fill:#80C979;stroke:#62935D;stroke-miterlimit:10;}
	.st37{display:inline;fill:none;stroke:#CECECE;stroke-width:1.5;stroke-linecap:round;stroke-miterlimit:10;}
	.st38{display:inline;fill:#9CD895;}
	.st39{display:inline;fill:#CCB175;}
	.st40{display:inline;fill:#BC9C5B;}
	.st41{display:inline;fill:#E0E0E0;}
	.st42{display:inline;opacity:0.5;fill:#CECECE;}
	.st43{display:inline;opacity:0.25;fill:#3C8199;}
	.st44{display:inline;fill:#998D77;}
	.st45{display:inline;fill:#82A5A8;}
	.st46{display:inline;fill:#64CC66;}
	.st47{display:inline;fill:#5B90C4;}
	.st48{display:inline;fill:#CC5A5A;}
	.st49{display:inline;fill:none;stroke:#000000;stroke-width:0.25;stroke-miterlimit:10;}
</style>
<g id="Layer_1">
	<g class="st0">
		<rect y="3" class="st1" width="40" height="40"/>
		<path class="st2" d="M5.8,34.2l3.3-1.3c0.2-0.1,0.4-0.2,0.6-0.4s0.2-0.4,0.2-0.7V9.5c0-0.3-0.1-0.5-0.2-0.7
			C9.5,8.7,9.3,8.6,9.1,8.5L5.8,7.3V5.4H21c2.3,0,4.1,0.2,5.6,0.6C28,6.4,29.2,6.9,30,7.5c0.8,0.6,1.4,1.4,1.7,2.2
			c0.3,0.8,0.5,1.7,0.5,2.5c0,1-0.2,1.9-0.5,2.7S31,16.4,30.5,17c-0.6,0.6-1.3,1.2-2.1,1.6c-0.8,0.4-1.7,0.8-2.7,1v0.2
			c1.3,0.1,2.4,0.3,3.5,0.7c1.1,0.4,2,0.9,2.7,1.5c0.8,0.6,1.4,1.4,1.8,2.3s0.6,1.8,0.6,2.9c0,1.2-0.2,2.2-0.5,3.1S33,32,32.4,32.6
			s-1.3,1.2-2.1,1.6c-0.8,0.4-1.7,0.8-2.6,1.1c-0.9,0.3-1.9,0.5-3,0.6c-1,0.1-2.1,0.2-3.1,0.2H5.8V34.2z M18.9,18.7
			c1.1,0,2.1-0.1,2.8-0.3c0.8-0.2,1.4-0.5,1.8-0.9c0.5-0.4,0.8-0.8,1-1.4c0.2-0.5,0.3-1.2,0.3-1.9c0-1.8-0.4-3.2-1.3-4
			C22.7,9.4,21.4,9,19.5,9h-2.6v9.7H18.9z M21.1,32.5c1.9,0,3.3-0.4,4.2-1.2c0.9-0.8,1.4-2,1.4-3.8c0-1-0.1-1.9-0.4-2.6
			c-0.2-0.7-0.6-1.3-1.1-1.7s-1.2-0.8-2-0.9s-1.8-0.3-3-0.3h-3.3v10.5H21.1z"/>
	</g>
	<g class="st0">
		<rect y="2" class="st1" width="40" height="40"/>
		<path class="st2" d="M24.1,35H11.2l0.4-1.6l3.4-1c0.3-0.1,0.5-0.2,0.7-0.4c0.2-0.2,0.3-0.4,0.4-0.7l5.1-23.2
			c0.1-0.3,0-0.5-0.1-0.7c-0.1-0.1-0.3-0.3-0.5-0.4L17.1,6l0.3-1.6h12.9L30,6l-2.5,0.8c-0.2,0.1-0.4,0.1-0.6,0.2
			c-0.2,0.1-0.4,0.1-0.6,0.2c-0.2,0.1-0.4,0.2-0.5,0.4s-0.2,0.3-0.3,0.5l-5.1,23.2c-0.1,0.3,0,0.5,0.1,0.7c0.1,0.2,0.3,0.3,0.5,0.4
			l3.5,1L24.1,35z"/>
	</g>
	<g class="st0">
		<rect y="2" class="st1" width="40" height="40"/>
		<path class="st2" d="M9.2,7.6C9.2,7.3,9.2,7.1,9,7S8.7,6.7,8.4,6.7l-3-1V4.2h11.6v1.4l-3,1c-0.2,0.1-0.4,0.2-0.5,0.3
			c-0.1,0.1-0.2,0.4-0.2,0.6v15.1c0,0.5,0,1,0.1,1.5s0.2,1.1,0.4,1.7s0.5,1.1,0.8,1.6c0.3,0.5,0.8,0.9,1.3,1.3
			c0.5,0.4,1.2,0.7,1.9,0.9c0.7,0.2,1.6,0.4,2.6,0.4c1,0,1.9-0.1,2.7-0.4s1.4-0.6,2-0.9c0.6-0.4,1.1-0.8,1.4-1.3
			c0.4-0.5,0.7-1,0.9-1.6s0.4-1.1,0.5-1.6s0.1-1,0.1-1.5V7.7c0-0.3-0.1-0.5-0.2-0.6s-0.3-0.2-0.5-0.3l-3-1.1V4.2h10.1v1.4l-3,1.1
			C31.3,6.9,31.2,7,31,7.1s-0.2,0.3-0.2,0.6v16.1c0,1.1-0.2,2.1-0.5,3c-0.3,0.9-0.8,1.7-1.3,2.3c-0.6,0.7-1.2,1.2-1.9,1.7
			s-1.5,0.9-2.3,1.2c-0.8,0.3-1.6,0.5-2.4,0.7c-0.8,0.1-1.6,0.2-2.3,0.2c-1.8,0-3.4-0.2-4.7-0.7c-1.3-0.5-2.5-1.1-3.4-1.8
			c-0.9-0.8-1.6-1.6-2-2.6c-0.5-1-0.7-2-0.7-3.1V7.6z"/>
		<path class="st2" d="M3.9,36.3v-2h32.3v2H3.9z"/>
	</g>
	<g class="st0">
		<rect y="2" class="st1" width="40" height="40"/>
		<path class="st2" d="M9.2,25.6h2.5l0.9,4.4c0,0.2,0.2,0.4,0.4,0.6s0.4,0.4,0.6,0.5c0.4,0.3,0.8,0.5,1.3,0.8s1,0.5,1.5,0.6
			c0.5,0.2,1,0.3,1.6,0.4c0.5,0.1,1.1,0.2,1.7,0.2c1.1,0,2.1-0.1,3-0.4c0.9-0.2,1.6-0.6,2.3-1.1c0.6-0.5,1.1-1,1.4-1.7
			c0.3-0.7,0.5-1.4,0.5-2.3c0-1.3-0.4-2.3-1.1-3.1c-0.8-0.8-1.8-1.5-3-2c-0.6-0.3-1.2-0.5-1.8-0.7c-0.6-0.2-1.2-0.4-1.8-0.6
			s-1.2-0.4-1.8-0.6c-0.6-0.2-1.2-0.4-1.7-0.6c-1.7-0.7-3.1-1.7-4.1-3c-1-1.3-1.5-2.9-1.5-4.7c0-1.2,0.3-2.4,0.8-3.4
			c0.5-1.1,1.3-2,2.2-2.7c0.9-0.8,2-1.4,3.3-1.8c1.3-0.4,2.6-0.6,4.1-0.6c0.9,0,1.7,0,2.5,0.1c0.8,0.1,1.6,0.2,2.4,0.3
			c0.8,0.1,1.5,0.3,2.2,0.5c0.7,0.2,1.4,0.3,2,0.5v7.8h-2.5L26,8.8c0-0.2-0.2-0.4-0.4-0.6c-0.2-0.2-0.4-0.3-0.6-0.5
			c-0.3-0.2-0.5-0.4-0.9-0.5s-0.7-0.3-1.1-0.4c-0.4-0.1-0.8-0.2-1.3-0.3c-0.5-0.1-0.9-0.1-1.4-0.1c-1,0-1.9,0.1-2.7,0.3
			c-0.8,0.2-1.5,0.5-2,0.9c-0.5,0.4-1,0.9-1.2,1.4c-0.3,0.5-0.4,1.1-0.4,1.7c0,0.6,0.1,1.1,0.2,1.6c0.1,0.5,0.4,1,0.7,1.5
			c0.3,0.5,0.8,0.9,1.3,1.3c0.6,0.4,1.3,0.8,2.1,1.1c0.6,0.2,1.1,0.4,1.7,0.6c0.6,0.2,1.1,0.4,1.7,0.6s1.1,0.4,1.7,0.6
			c0.6,0.2,1.2,0.5,1.9,0.7c0.7,0.3,1.4,0.7,2.1,1.1c0.7,0.4,1.3,0.9,1.8,1.6c0.5,0.6,1,1.3,1.3,2.2c0.3,0.8,0.5,1.8,0.5,2.9
			c0,1.2-0.2,2.3-0.7,3.4c-0.4,1.1-1.2,2.1-2.1,2.9s-2.2,1.5-3.7,2.1c-1.5,0.5-3.3,0.8-5.4,0.8c-0.7,0-1.5-0.1-2.3-0.2
			c-0.8-0.1-1.6-0.3-2.5-0.4c-0.8-0.2-1.7-0.4-2.5-0.6c-0.8-0.2-1.7-0.5-2.5-0.7L9.2,25.6z"/>
	</g>
	<g class="st0">
		<rect y="2" class="st1" width="40" height="40"/>
		<path class="st2" d="M20,35.6c-0.6,0-1.1-0.1-1.6-0.3c-0.5-0.2-0.9-0.5-1.3-0.8c-0.4-0.3-0.7-0.8-0.9-1.2c-0.2-0.5-0.3-1-0.3-1.5
			s0.1-1.1,0.3-1.5c0.2-0.5,0.5-0.9,0.9-1.3c0.4-0.4,0.8-0.6,1.3-0.9c0.5-0.2,1-0.3,1.6-0.3c0.6,0,1.1,0.1,1.6,0.3s1,0.5,1.3,0.9
			c0.4,0.4,0.7,0.8,0.9,1.3s0.3,1,0.3,1.5s-0.1,1.1-0.3,1.5c-0.2,0.5-0.5,0.9-0.9,1.2c-0.4,0.3-0.8,0.6-1.3,0.8S20.6,35.6,20,35.6z
			 M15.9,5.5V4.4h8.1v1.1L21.9,25h-3.7L15.9,5.5z"/>
	</g>
	<g class="st0">
		<rect x="0.5" y="8" class="st1" width="40" height="40"/>
		<path class="st2" d="M1.9,31.5L3.7,31C4,31,4.1,30.9,4.3,30.7c0.1-0.1,0.2-0.3,0.2-0.6V11.3c0-0.3-0.1-0.5-0.2-0.6
			c-0.1-0.2-0.4-0.3-0.7-0.4L1.9,9.6V8.9L7.3,8v9.7v0.9c0.5-0.6,0.9-1.1,1.4-1.5c0.4-0.4,0.9-0.6,1.3-0.8c0.4-0.2,0.8-0.3,1.3-0.4
			c0.4-0.1,0.8-0.1,1.2-0.1c0.7,0,1.4,0.1,2,0.3c0.6,0.2,1.2,0.5,1.7,1c0.5,0.5,0.8,1,1.1,1.8c0.3,0.7,0.4,1.6,0.4,2.6v8.7
			c0,0.3,0.1,0.5,0.2,0.6s0.3,0.3,0.5,0.3l1.6,0.5v0.9h-7.6v-0.9l1.7-0.5c0.2-0.1,0.3-0.2,0.5-0.3c0.1-0.1,0.2-0.4,0.2-0.6v-7.5
			c0-0.7,0-1.4-0.1-2c-0.1-0.6-0.3-1.1-0.5-1.5c-0.3-0.4-0.6-0.7-1.1-0.9c-0.5-0.2-1.1-0.3-1.8-0.3c-0.3,0-0.7,0-1,0.1
			s-0.7,0.2-1.1,0.3s-0.7,0.3-1,0.5c-0.3,0.2-0.6,0.5-0.8,0.8v10.7c0,0.2,0.1,0.4,0.2,0.6C7.6,30.9,7.8,31,8,31l1.5,0.5v0.9H1.9
			V31.5z"/>
		<path class="st2" d="M23.2,30.7c1-0.8,2-1.5,3-2.2c0.9-0.7,1.8-1.3,2.5-1.8c0.8-0.6,1.5-1.1,2.1-1.6s1.1-1,1.6-1.6
			c0.4-0.5,0.7-1.1,1-1.6c0.2-0.6,0.3-1.2,0.3-1.9c0-0.6-0.1-1.1-0.2-1.5c-0.1-0.5-0.3-0.8-0.5-1.2c-0.3-0.3-0.6-0.6-1-0.7
			c-0.4-0.2-0.9-0.3-1.5-0.3c-0.6,0-1.2,0.1-1.8,0.4c-0.6,0.2-1.2,0.5-1.7,0.9c-0.5,0.3-1,0.7-1.5,1c-0.4,0.4-0.8,0.7-1.1,0.9h-0.5
			l-0.4-2.9c0.2-0.1,0.6-0.3,1-0.5c0.4-0.2,0.9-0.4,1.5-0.6c0.6-0.2,1.2-0.4,1.9-0.5c0.7-0.2,1.4-0.2,2.1-0.2c1,0,1.9,0.1,2.7,0.3
			c0.8,0.2,1.6,0.5,2.2,0.9s1.1,0.9,1.4,1.6c0.4,0.6,0.5,1.4,0.5,2.3c0,0.8-0.1,1.5-0.4,2.1s-0.6,1.2-1.1,1.8
			c-0.5,0.5-1,1.1-1.6,1.6c-0.6,0.5-1.3,1-2.1,1.5s-1.6,1-2.5,1.5c-0.9,0.5-1.8,1.1-2.7,1.7v0.1l2.2-0.1h6.9c0.3,0,0.6-0.1,0.7-0.2
			c0.2-0.1,0.3-0.3,0.3-0.6l0.4-1.9h1.1v5.3H23.2V30.7z"/>
	</g>
	<g class="st0">
		<rect y="10" class="st1" width="40" height="40"/>
		<path class="st2" d="M10.6,28.9l-8.9-7.5l8.9-7.5l2.1,2.1l-6.5,5.4l6.5,5.4L10.6,28.9z"/>
		<path class="st2" d="M16.7,31.5h-3.1L22.7,10h3.1L16.7,31.5z"/>
		<path class="st2" d="M29.4,14l8.9,7.5l-8.9,7.5l-2-2.1l6.5-5.4l-6.5-5.4L29.4,14z"/>
	</g>
	<g class="st0">
		<rect x="10" y="13" class="st1" width="40" height="40"/>
		<path class="st2" d="M26.1,32l2.1-0.6c0.1,0,0.2-0.1,0.3-0.2s0.1-0.2,0.1-0.3V17.7h-3.8c-0.1,0-0.2,0-0.3,0.1s-0.1,0.2-0.1,0.3
			l-0.5,2.6h-1.6v-4.6h15.7v4.6h-1.6L35.7,18c0-0.1-0.1-0.2-0.1-0.3c-0.1-0.1-0.2-0.1-0.3-0.1h-3.9v13.2c0,0.1,0,0.3,0.1,0.3
			c0.1,0.1,0.2,0.1,0.3,0.2l2.1,0.6V33h-7.8V32z"/>
	</g>
	<g class="st0">
		<rect x="-7" y="7.5" class="st1" width="40" height="40"/>
		<path class="st2" d="M7.5,31.7l2.9-0.9c0.2-0.1,0.4-0.2,0.5-0.3c0.1-0.1,0.2-0.3,0.2-0.6V9.7H5.3c-0.2,0-0.4,0.1-0.5,0.2
			s-0.2,0.3-0.3,0.5l-0.7,3.8H1.7V7.5h22.6v6.6h-2.1l-0.7-3.8c0-0.2-0.1-0.4-0.3-0.5c-0.1-0.1-0.3-0.2-0.5-0.2h-5.9v20.3
			c0,0.3,0.1,0.5,0.2,0.6c0.1,0.1,0.3,0.2,0.5,0.3l2.9,0.9V33h-11V31.7z"/>
	</g>
	<g class="st0">
		<rect y="13.5" class="st1" width="40" height="25.5"/>
		<path class="st2" d="M9.1,12.8c-0.1-0.1-0.1-0.2-0.2-0.3c-0.1-0.1-0.2-0.2-0.3-0.3l-1.1-0.5v-0.8h6v0.8l-2,0.7l3.2,10.1l0.4,1.7
			h0.2l3.3-10.1l1.2-3h1.7L25,22.4l0.4,1.8h0.2l3.8-11.8l-2-0.8v-0.8h5.2v0.8l-1.1,0.5c-0.1,0.1-0.2,0.1-0.3,0.3
			c-0.1,0.1-0.2,0.2-0.2,0.4L27,24.6l-1.2,3h-1.7L20.4,16L20,14.5h-0.2l-3.3,10.1l-1.2,3h-1.7L9.1,12.8z"/>
	</g>
	<g class="st0">
		<rect y="19.5" class="st1" width="40" height="25.5"/>
		<path class="st2" d="M18.5,31c0,0.7-0.1,1.3-0.4,1.9c-0.3,0.5-0.7,1-1.2,1.4c-0.5,0.4-1.1,0.7-1.8,0.9c-0.7,0.2-1.5,0.3-2.4,0.3
			H8.9V20.7h4.2c3.3,0,4.9,1.2,4.9,3.6c0,0.8-0.2,1.5-0.6,2c-0.4,0.6-1,1-1.8,1.3c0.4,0.1,0.8,0.2,1.1,0.4c0.4,0.2,0.7,0.4,0.9,0.7
			c0.3,0.3,0.5,0.6,0.6,1C18.5,30.1,18.5,30.5,18.5,31z M15.9,24.5c0-0.3,0-0.6-0.1-0.8c-0.1-0.3-0.2-0.5-0.5-0.7
			c-0.2-0.2-0.5-0.3-0.9-0.5c-0.4-0.1-0.9-0.2-1.4-0.2h-2.1V27h2c0.5,0,0.9,0,1.2-0.1c0.4-0.1,0.7-0.2,1-0.4
			c0.3-0.2,0.5-0.5,0.6-0.8C15.9,25.3,15.9,25,15.9,24.5z M16.4,31c0-0.4-0.1-0.7-0.2-1s-0.4-0.6-0.7-0.8c-0.3-0.2-0.7-0.4-1.1-0.5
			c-0.4-0.1-0.9-0.2-1.5-0.2h-2v5.1H13c1.1,0,2-0.2,2.6-0.6S16.4,32,16.4,31z"/>
		<path class="st2" d="M31.6,31c0,0.7-0.1,1.3-0.4,1.9c-0.3,0.5-0.7,1-1.2,1.4c-0.5,0.4-1.1,0.7-1.8,0.9c-0.7,0.2-1.5,0.3-2.4,0.3
			H22V20.7h4.2c3.3,0,4.9,1.2,4.9,3.6c0,0.8-0.2,1.5-0.6,2c-0.4,0.6-1,1-1.8,1.3c0.4,0.1,0.8,0.2,1.1,0.4s0.7,0.4,0.9,0.7
			c0.3,0.3,0.5,0.6,0.6,1C31.6,30.1,31.6,30.5,31.6,31z M29,24.5c0-0.3,0-0.6-0.1-0.8c-0.1-0.3-0.2-0.5-0.5-0.7
			c-0.2-0.2-0.5-0.3-0.9-0.5c-0.4-0.1-0.9-0.2-1.4-0.2H24V27h2c0.5,0,0.9,0,1.2-0.1c0.4-0.1,0.7-0.2,1-0.4s0.5-0.5,0.6-0.8
			C29,25.3,29,25,29,24.5z M29.5,31c0-0.4-0.1-0.7-0.2-1c-0.2-0.3-0.4-0.6-0.7-0.8c-0.3-0.2-0.7-0.4-1.1-0.5
			c-0.4-0.1-0.9-0.2-1.5-0.2h-2v5.1h2.1c1.1,0,2-0.2,2.6-0.6C29.2,32.6,29.5,32,29.5,31z"/>
	</g>
	<g class="st0">
		<rect y="2.5" class="st1" width="40" height="25.5"/>
		<path class="st2" d="M18.4,18.4h-2.6l-4.3-9.2l-1.2-2.9v7.4v4.7H8.5V3.7H11l4.1,8.7l1.5,3.4V7.9V3.7h1.9V18.4z"/>
		<path class="st2" d="M32.3,10.9c0,1.3-0.2,2.5-0.5,3.4s-0.7,1.8-1.3,2.4c-0.5,0.6-1.1,1.1-1.9,1.4c-0.7,0.3-1.5,0.5-2.2,0.5
			c-0.9,0-1.8-0.2-2.5-0.5c-0.7-0.3-1.3-0.8-1.7-1.5s-0.8-1.4-1-2.4c-0.2-0.9-0.3-2-0.3-3.1c0-1.3,0.2-2.4,0.5-3.4s0.7-1.8,1.3-2.4
			c0.5-0.6,1.1-1.1,1.8-1.4c0.7-0.3,1.4-0.5,2.2-0.5c0.9,0,1.8,0.2,2.5,0.5c0.7,0.3,1.3,0.8,1.7,1.5c0.5,0.6,0.8,1.4,1,2.3
			S32.3,9.8,32.3,10.9z M30.2,11.1c0-0.9-0.1-1.6-0.2-2.4c-0.1-0.7-0.3-1.3-0.6-1.8c-0.3-0.5-0.7-0.9-1.1-1.2s-1-0.4-1.7-0.4
			c-0.6,0-1.2,0.2-1.6,0.5c-0.5,0.3-0.8,0.7-1.1,1.2c-0.3,0.5-0.5,1.1-0.7,1.8c-0.1,0.7-0.2,1.4-0.2,2.2c0,0.9,0.1,1.7,0.2,2.4
			c0.1,0.7,0.3,1.3,0.6,1.8c0.3,0.5,0.7,0.9,1.1,1.2s1,0.4,1.7,0.4c0.6,0,1.2-0.2,1.6-0.5c0.5-0.3,0.8-0.7,1.1-1.2
			c0.3-0.5,0.5-1.1,0.7-1.8S30.2,11.9,30.2,11.1z"/>
	</g>
	<g class="st0">
		<rect x="-12" y="4.5" class="st1" width="40" height="40"/>
		<path class="st2" d="M4.4,19.5L6.3,19c0.1,0,0.2-0.1,0.3-0.2c0.1-0.1,0.1-0.2,0.1-0.4V5.2H3c-0.1,0-0.2,0-0.3,0.1
			C2.6,5.4,2.5,5.5,2.5,5.6L2,8.1H0.7V3.8h14.7v4.3H14l-0.5-2.5c0-0.1-0.1-0.3-0.2-0.3S13.2,5.2,13,5.2H9.2v13.2
			c0,0.2,0,0.3,0.1,0.4c0.1,0.1,0.2,0.2,0.3,0.2l1.9,0.6v0.9H4.4V19.5z"/>
	</g>
	<g class="st0">
		<rect x="-1" y="15.5" class="st1" width="40" height="40"/>
		<path class="st2" d="M12.1,30.5l1.8-0.6c0.1,0,0.2-0.1,0.3-0.2c0.1-0.1,0.1-0.2,0.1-0.4V16.8c0-0.2,0-0.3-0.1-0.4
			c-0.1-0.1-0.2-0.1-0.3-0.2l-1.8-0.6v-0.8H25v4.1h-1.4l-0.5-2.3c0-0.1-0.1-0.2-0.2-0.3c-0.1-0.1-0.2-0.1-0.3-0.1h-5.9v5.8h3.5
			c0.2,0,0.3,0,0.3-0.1c0.1-0.1,0.1-0.2,0.2-0.3l0.4-1.8h1.1v5.9h-1.1l-0.4-1.8c0-0.1-0.1-0.3-0.2-0.3c-0.1-0.1-0.2-0.1-0.3-0.1
			h-3.5V30h6.8c0.1,0,0.2,0,0.3-0.1s0.1-0.2,0.2-0.3l0.5-2.5h1.4v4.4H12.1V30.5z"/>
	</g>
	<g class="st0">
		<rect x="11" y="9.5" class="st1" width="40" height="40"/>
		<path class="st2" d="M23,24.5l1.4-0.5c0.1-0.1,0.3-0.1,0.4-0.3s0.2-0.3,0.3-0.4l4.6-6.1l-4.4-6.5c0-0.1-0.1-0.1-0.2-0.2
			c-0.1-0.1-0.1-0.1-0.2-0.2c-0.1-0.1-0.1-0.1-0.2-0.1c-0.1,0-0.1-0.1-0.2-0.1l-1.4-0.5V8.8h6.2v0.8l-1.5,0.7l2.8,4.1l0.7,1.4h0.1
			l3.8-5.4l-1.5-0.7V8.8h5.1v0.8l-1.3,0.5c-0.1,0-0.2,0.1-0.4,0.2s-0.3,0.3-0.4,0.4l-4.4,5.9l4.6,6.7c0.1,0.1,0.2,0.3,0.3,0.4
			s0.2,0.2,0.4,0.2l1.3,0.5v0.9h-6.2v-0.9l1.6-0.7l-2.9-4.3l-0.7-1.3h-0.1l-4,5.5l1.5,0.7v0.9H23V24.5z"/>
	</g>
	<g class="st0">
		<rect x="-22" y="1" class="st1" width="40" height="40"/>
		<path class="st2" d="M8.5,11.3h-6v-1.2H5v-7L2.7,4.4L2.2,3.3l3-1.6h1.1v8.4h2.1V11.3z"/>
		<path class="st2" d="M13.8,9c0.2,0,0.3,0,0.5,0.1c0.1,0.1,0.3,0.2,0.4,0.3c0.1,0.1,0.2,0.2,0.3,0.4C15,9.9,15,10.1,15,10.3
			c0,0.2,0,0.3-0.1,0.5s-0.2,0.3-0.3,0.4c-0.1,0.1-0.2,0.2-0.4,0.3c-0.1,0.1-0.3,0.1-0.5,0.1c-0.2,0-0.3,0-0.5-0.1s-0.3-0.1-0.4-0.3
			c-0.1-0.1-0.2-0.2-0.3-0.4s-0.1-0.3-0.1-0.5c0-0.2,0-0.3,0.1-0.5c0.1-0.1,0.2-0.3,0.3-0.4c0.1-0.1,0.2-0.2,0.4-0.3S13.6,9,13.8,9z
			"/>
		<path class="st2" d="M8.6,23.3H2.3v-1.1l2.5-2.5c0.4-0.4,0.7-0.7,1-1s0.5-0.6,0.6-0.8c0.1-0.2,0.2-0.5,0.3-0.7s0.1-0.4,0.1-0.7
			c0-0.2,0-0.5-0.1-0.7c-0.1-0.2-0.2-0.4-0.3-0.6C6.2,15.1,6,15,5.8,14.9S5.3,14.8,5,14.8c-0.4,0-0.8,0.1-1.1,0.3
			c-0.3,0.2-0.6,0.4-0.9,0.7l-0.7-0.8c0.4-0.4,0.8-0.7,1.2-0.9c0.5-0.2,1-0.3,1.6-0.3c0.4,0,0.8,0.1,1.2,0.2C6.7,14,7,14.1,7.3,14.4
			c0.3,0.2,0.5,0.5,0.6,0.9C8,15.6,8.1,16,8.1,16.4c0,0.4,0,0.7-0.1,1s-0.2,0.6-0.4,0.9c-0.2,0.3-0.4,0.6-0.7,1
			c-0.3,0.3-0.7,0.7-1.1,1.1l-1.7,1.7h4.7V23.3z"/>
		<path class="st2" d="M13.8,21c0.2,0,0.3,0,0.5,0.1c0.1,0.1,0.3,0.2,0.4,0.3c0.1,0.1,0.2,0.2,0.3,0.4c0.1,0.1,0.1,0.3,0.1,0.5
			c0,0.2,0,0.3-0.1,0.5s-0.2,0.3-0.3,0.4c-0.1,0.1-0.2,0.2-0.4,0.3c-0.1,0.1-0.3,0.1-0.5,0.1c-0.2,0-0.3,0-0.5-0.1
			c-0.1-0.1-0.3-0.2-0.4-0.3c-0.1-0.1-0.2-0.2-0.3-0.4s-0.1-0.3-0.1-0.5c0-0.2,0-0.3,0.1-0.5c0.1-0.1,0.2-0.3,0.3-0.4
			c0.1-0.1,0.2-0.2,0.4-0.3S13.6,21,13.8,21z"/>
		<path class="st2" d="M8.4,32.4c0,0.4-0.1,0.8-0.3,1.2c-0.2,0.4-0.4,0.7-0.8,1c-0.3,0.3-0.8,0.5-1.3,0.7c-0.5,0.2-1.1,0.2-1.8,0.2
			c-0.4,0-0.7,0-1,0c-0.3,0-0.6-0.1-0.8-0.1v-1.1c0.3,0.1,0.6,0.1,1,0.1c0.3,0,0.7,0,1,0c0.5,0,0.9,0,1.2-0.1
			C6,34.2,6.2,34,6.5,33.9c0.2-0.2,0.4-0.4,0.5-0.6c0.1-0.2,0.1-0.5,0.1-0.8c0-0.3-0.1-0.5-0.2-0.7c-0.1-0.2-0.3-0.4-0.5-0.5
			c-0.2-0.1-0.5-0.2-0.8-0.3c-0.3-0.1-0.6-0.1-1-0.1H3.6v-1h1.1c0.3,0,0.6,0,0.8-0.1c0.2-0.1,0.4-0.2,0.6-0.3
			c0.2-0.1,0.3-0.3,0.4-0.5c0.1-0.2,0.1-0.4,0.1-0.7c0-0.5-0.2-0.9-0.5-1.1c-0.3-0.2-0.8-0.4-1.4-0.4c-0.3,0-0.7,0-1,0.1
			c-0.3,0.1-0.7,0.2-1.1,0.3V26C2.8,26,3,25.9,3.2,25.9c0.2,0,0.4-0.1,0.6-0.1c0.2,0,0.4-0.1,0.6-0.1c0.2,0,0.4,0,0.5,0
			c0.5,0,1,0.1,1.3,0.2c0.4,0.1,0.7,0.3,1,0.5c0.3,0.2,0.5,0.5,0.6,0.7c0.1,0.3,0.2,0.6,0.2,1c0,0.5-0.1,1-0.4,1.4
			c-0.3,0.4-0.7,0.7-1.2,0.9c0.2,0,0.5,0.1,0.7,0.2c0.2,0.1,0.5,0.3,0.7,0.5c0.2,0.2,0.3,0.4,0.5,0.6C8.3,31.9,8.4,32.1,8.4,32.4z"
			/>
		<path class="st2" d="M13.8,33c0.2,0,0.3,0,0.5,0.1c0.1,0.1,0.3,0.2,0.4,0.3c0.1,0.1,0.2,0.2,0.3,0.4c0.1,0.1,0.1,0.3,0.1,0.5
			c0,0.2,0,0.3-0.1,0.5s-0.2,0.3-0.3,0.4c-0.1,0.1-0.2,0.2-0.4,0.3c-0.1,0.1-0.3,0.1-0.5,0.1c-0.2,0-0.3,0-0.5-0.1
			c-0.1-0.1-0.3-0.2-0.4-0.3c-0.1-0.1-0.2-0.2-0.3-0.4s-0.1-0.3-0.1-0.5c0-0.2,0-0.3,0.1-0.5c0.1-0.1,0.2-0.3,0.3-0.4
			c0.1-0.1,0.2-0.2,0.4-0.3S13.6,33,13.8,33z"/>
	</g>
	<g class="st0">
		<rect x="-16" y="9" class="st1" width="72" height="72"/>
		<path class="st2" d="M13.7,28.1c-1,0-1.9-0.2-2.6-0.5c-0.7-0.3-1.3-0.8-1.8-1.4c-0.5-0.6-0.8-1.3-1-2.2c-0.2-0.8-0.3-1.8-0.3-2.9
			c0-1.4,0.3-2.7,0.9-3.9c0.6-1.2,1.3-2.3,2.3-3.3c0.9-1,2-1.9,3.1-2.7c1.1-0.8,2.2-1.5,3.3-2.1l1.8,2.6c-0.9,0.6-1.6,1.2-2.2,1.8
			c-0.6,0.6-1.1,1.2-1.5,1.7c-0.4,0.6-0.8,1.1-1,1.6s-0.5,1-0.7,1.5c0.8,0.5,1.5,0.9,2,1.2c0.6,0.4,1,0.7,1.4,1.1
			c0.4,0.4,0.6,0.8,0.8,1.2s0.3,1,0.3,1.6c0,0.5-0.1,1-0.3,1.5c-0.2,0.5-0.5,1-0.9,1.4c-0.4,0.4-0.9,0.8-1.5,1.1
			C15.1,28,14.4,28.1,13.7,28.1z M27.1,28.1c-1,0-1.9-0.2-2.6-0.5c-0.7-0.3-1.3-0.8-1.8-1.4c-0.5-0.6-0.8-1.3-1-2.2
			c-0.2-0.8-0.3-1.8-0.3-2.9c0-1.4,0.3-2.7,0.9-3.9c0.6-1.2,1.4-2.3,2.3-3.3c0.9-1,1.9-1.9,3.1-2.7c1.1-0.8,2.2-1.5,3.3-2.1l1.8,2.6
			c-0.9,0.6-1.6,1.2-2.2,1.8c-0.6,0.6-1.1,1.2-1.5,1.7c-0.4,0.6-0.8,1.1-1,1.6s-0.5,1-0.7,1.5c0.8,0.5,1.4,0.9,2,1.2
			c0.6,0.4,1,0.7,1.4,1.1c0.4,0.4,0.7,0.8,0.8,1.2s0.3,1,0.3,1.6c0,0.5-0.1,1-0.3,1.5s-0.5,1-0.9,1.4c-0.4,0.4-0.9,0.8-1.5,1.1
			C28.5,28,27.8,28.1,27.1,28.1z"/>
	</g>
	<g class="st0">
		<rect y="8" class="st1" width="40" height="40"/>
		<path class="st2" d="M12.4,18.9c0,1.1-0.2,2-0.5,2.9c-0.3,0.8-0.7,1.5-1.3,2S9.5,24.7,8.8,25s-1.5,0.4-2.4,0.4
			c-0.4,0-0.8,0-1.2-0.1c-0.4,0-0.8-0.1-1.2-0.2v5.1H2V13h1.9L4,15c0.6-0.8,1.3-1.4,2-1.8c0.7-0.3,1.4-0.5,2.2-0.5
			c0.7,0,1.3,0.1,1.8,0.4c0.5,0.3,1,0.7,1.3,1.2c0.4,0.5,0.6,1.2,0.8,1.9C12.3,17.1,12.4,18,12.4,18.9z M10.3,19
			c0-0.6,0-1.2-0.1-1.8c-0.1-0.5-0.2-1-0.4-1.4c-0.2-0.4-0.5-0.7-0.8-0.9c-0.3-0.2-0.7-0.3-1.1-0.3c-0.3,0-0.5,0-0.8,0.1
			c-0.3,0.1-0.6,0.2-0.9,0.4c-0.3,0.2-0.6,0.5-0.9,0.8c-0.3,0.3-0.7,0.7-1.1,1.2v5.9c0.4,0.2,0.8,0.3,1.2,0.4
			c0.4,0.1,0.9,0.1,1.3,0.1c1.1,0,2-0.4,2.7-1.2C9.9,21.7,10.3,20.6,10.3,19z"/>
		<path class="st2" d="M15.6,13h1.9l0.1,2.3c0.7-0.9,1.4-1.5,2.1-1.9c0.7-0.4,1.4-0.6,2.1-0.6c1.3,0,2.2,0.4,2.9,1.2
			c0.7,0.8,1,2,0.9,3.7h-2.1c0-1.1-0.1-1.9-0.5-2.3c-0.3-0.5-0.8-0.7-1.5-0.7c-0.3,0-0.6,0.1-0.9,0.2c-0.3,0.1-0.6,0.3-0.9,0.5
			c-0.3,0.2-0.6,0.5-1,0.9c-0.3,0.4-0.7,0.8-1.1,1.3v7.9h-2.1V13z"/>
		<path class="st2" d="M38.6,18.5c0,0.3,0,0.6,0,0.8c0,0.2,0,0.4,0,0.6h-8.6c0,1.3,0.3,2.2,1,2.9c0.7,0.7,1.7,1,3,1
			c0.4,0,0.7,0,1.1,0c0.4,0,0.7-0.1,1-0.1s0.7-0.1,1-0.2c0.3-0.1,0.6-0.1,0.8-0.2v1.7c-0.6,0.2-1.2,0.3-2,0.4
			c-0.7,0.1-1.5,0.2-2.3,0.2c-1,0-2-0.1-2.7-0.4s-1.4-0.7-1.9-1.2c-0.5-0.5-0.8-1.2-1.1-2c-0.2-0.8-0.3-1.7-0.3-2.7
			c0-0.9,0.1-1.7,0.4-2.4c0.2-0.8,0.6-1.4,1.1-2c0.5-0.6,1.1-1,1.8-1.4s1.5-0.5,2.4-0.5c0.9,0,1.6,0.1,2.3,0.4
			c0.7,0.3,1.2,0.6,1.7,1.1c0.5,0.5,0.8,1.1,1,1.8C38.4,16.8,38.6,17.6,38.6,18.5z M36.3,18.2c0-0.5,0-1-0.2-1.5
			c-0.1-0.5-0.3-0.8-0.6-1.2c-0.3-0.3-0.6-0.6-1-0.8c-0.4-0.2-0.9-0.3-1.4-0.3c-0.5,0-0.9,0.1-1.3,0.3c-0.4,0.2-0.7,0.4-1,0.8
			c-0.3,0.3-0.5,0.7-0.7,1.2c-0.2,0.5-0.3,1-0.3,1.5H36.3z"/>
	</g>
	<line class="st3" x1="20" y1="7" x2="35.5" y2="7"/>
	<line class="st3" x1="20.5" y1="19.8" x2="36" y2="19.8"/>
	<line class="st3" x1="20.5" y1="32.5" x2="36" y2="32.5"/>
	<circle class="st4" cx="8" cy="7" r="3"/>
	<circle class="st4" cx="8" cy="20" r="3"/>
	<circle class="st4" cx="8" cy="33" r="3"/>
	<g class="st0">
		<rect x="-41.2" y="-24" class="st1" width="14.6" height="14.8"/>
	</g>
	<line class="st5" x1="5.5" y1="20" x2="34.5" y2="20"/>
</g>
<g id="hr" class="st0">
	<rect x="1.3" y="23.5" class="st2" width="37.5" height="2"/>
	<rect x="7" y="32.3" class="st6" width="26" height="2.5"/>
	<rect x="7" y="14.3" class="st6" width="26" height="2.5"/>
	<rect x="7" y="5.3" class="st6" width="26" height="2.5"/>
</g>
<g id="plain" class="st0">
</g>
<g id="user" class="st0">
	<path class="st7" d="M32.7,34.5v3.1c0,0.3-0.3,0.6-0.6,0.6H9.4c-0.3,0-0.6-0.3-0.6-0.6v-3.1c0-2.4,1.4-4.4,3.4-5.3
		c-0.8-0.7-2.1-1.5-3-3.4c-1.3-2.6-1-5.7,0.6-8.1c0.9-1.3,1.3-2.9,1.3-4.4V9.8c0-4.3,3.5-7.8,7.8-7.8h3.7c4.3,0,7.8,3.5,7.8,7.8
		c0,3.6-0.1,4.3,0.3,5.7c0.6,2,1.4,2.3,2,4.3c1,3.2-0.1,6.7-2.8,8.8l-0.7,0.5C31.3,30.1,32.7,32.1,32.7,34.5L32.7,34.5z"/>
	<path class="st8" d="M32.7,34.5v3.1c0,0.3-0.3,0.6-0.6,0.6H9.4c-0.3,0-0.6-0.3-0.6-0.6v-3.1c0-3.2,2.6-5.8,5.8-5.8
		c0.5,0,0.9-0.1,1.3-0.3l0,0l4.4,3.4c0.2,0.2,0.5,0.2,0.8,0l4.4-3.4l0,0c0.4,0.2,0.9,0.3,1.3,0.3C30.1,28.6,32.7,31.2,32.7,34.5z"/>
	<path class="st9" d="M27.8,13.4c0.3,0,0.6,0.3,0.6,0.6v3.7c0,3.2-2,6-4.8,7.1C18.6,27,13,23.2,13,17.7v-3.7c0-0.4,0.3-0.7,0.7-0.6
		c3.7,0.3,7.4-0.6,10.5-2.7c0.4-0.2,0.8-0.1,0.9,0.3C25.5,12.5,26.6,13.3,27.8,13.4L27.8,13.4z"/>
	<path class="st10" d="M30,28.6l-0.7,0.5c-0.7-0.3-1.5-0.5-2.4-0.5c-1.8,0-3.2-1.4-3.2-3.2v-0.5l0,0c2.8-1.2,4.8-3.9,4.8-7.1V14
		c0-0.3-0.3-0.6-0.6-0.6c-1.3-0.1-2.3-0.9-2.7-2.3c-0.1-0.4-0.6-0.6-0.9-0.3c-3.1,2.1-6.8,3-10.5,2.7c-0.4,0-0.7,0.3-0.7,0.6v3.7
		c0,3.2,2,6,4.8,7.1l0,0v0.5c0,1.8-1.4,3.2-3.2,3.2c-0.9,0-1.7,0.2-2.4,0.5l-0.7-0.5c-3.3-2.7-4.1-7.5-1.7-11
		c0.9-1.3,1.3-2.9,1.3-4.4V9.8c0-4.3,3.5-7.8,7.8-7.8h3.7c4.3,0,7.8,3.5,7.8,7.8v3.4c0,1.6,0.5,3.1,1.3,4.4
		C34.1,21.2,33.3,26,30,28.6L30,28.6z"/>
	<path class="st11" d="M23.8,26.2c-1.9,0.8-4,0.9-6.1,0c0.1-0.4,0.1-0.7,0.1-1.3l0,0c1.9,0.8,4,0.8,5.9,0l0,0
		C23.7,25.5,23.7,25.7,23.8,26.2z"/>
	<path class="st12" d="M26.1,2.8c0.8,0.4,0.4,1.6-0.4,1.5c-0.2,0-0.5,0-0.7,0h-3.7c-4.3,0-7.8,3.5-7.8,7.8v0.9c0,0.6-0.4,0.5-0.4,1
		c0,4.1,0,3.9,0,4c-0.6,1.8-1.3,2.1-1.9,4c-0.3,1.1-0.4,2.2-0.3,3.2c0.1,0.9-1.1,1.3-1.6,0.4c-1.3-2.6-1.1-5.7,0.6-8.1
		c0.9-1.3,1.3-2.9,1.3-4.4V9.8c0-4.3,3.5-7.8,7.8-7.8h3.7C23.9,2,25.1,2.3,26.1,2.8L26.1,2.8z"/>
	<path class="st13" d="M19.2,22.9c1.2,0.8,0.3,2.6-1,2.1c-2.9-1-5.2-3.7-5.2-7.3v-3.7c0-0.4,0.3-0.7,0.7-0.6c0.3,0,0.6,0,1,0.1
		c0.6,0,1.1,0.5,1.1,1.2v1.8C15.8,19.2,17.2,21.5,19.2,22.9L19.2,22.9z"/>
	<path class="st14" d="M17.2,29.4c0.4,0.3,0.2,0.9-0.3,0.9c-3.3,0-5.8,2.7-5.8,5.8v2H9.4c-0.3,0-0.6-0.3-0.6-0.6v-3.1
		c0-3.2,2.6-5.8,5.8-5.8c0.5,0,0.9-0.1,1.3-0.3l0,0L17.2,29.4z"/>
	<path class="st15" d="M24.3,29.4c-0.4,0.3-0.2,0.9,0.3,0.9c3.3,0,5.8,2.7,5.8,5.8v2h1.7c0.3,0,0.6-0.3,0.6-0.6v-3.1
		c0-3.2-2.6-5.8-5.8-5.8c-0.5,0-0.9-0.1-1.3-0.3l0,0L24.3,29.4z"/>
</g>
<g id="Layer_21" class="st0">
	<path class="st16" d="M26.1,16.9L7.9,36.1c-3.1,0.8-4.2-0.3-3.4-3.4l19.2-18.2L26.1,16.9z"/>
	<path class="st17" d="M25.6,16.4l-18,18.4c-2.3,1.5-2.7,1.2-1.1-1.1l18.4-18L25.6,16.4z"/>
	<rect x="20.8" y="9" transform="matrix(0.7071 0.7071 -0.7071 0.7071 17.1728 -15.5308)" class="st16" width="13" height="8"/>
	<rect x="27.4" y="10.1" transform="matrix(0.7071 0.7071 -0.7071 0.7071 18.2739 -15.9869)" class="st17" width="2.1" height="8"/>
	<path class="st16" d="M29.3,22l-0.4-0.4c-0.3-0.3-0.3-0.7,0-1l6-6c0.3-0.3,0.7-0.3,1,0l0.4,0.4c0.3,0.3,0.3,0.7,0,1l-6,6
		C30,22.3,29.6,22.3,29.3,22z"/>
	<path class="st16" d="M21,34.7v-1.4c0-0.4,0.3-0.7,0.7-0.7h12.6c0.4,0,0.7,0.3,0.7,0.7v1.4c0,0.4-0.3,0.7-0.7,0.7H21.7
		C21.3,35.4,21,35.1,21,34.7z"/>
	
		<rect x="30.4" y="32.8" transform="matrix(-1.836970e-16 1 -1 -1.836970e-16 65.7645 2.2355)" class="st17" width="2.8" height="2.5"/>
	
		<rect x="21.9" y="33.3" transform="matrix(-1.836970e-16 1 -1 -1.836970e-16 57.2645 10.7355)" class="st17" width="2.8" height="1.5"/>
	<path class="st16" d="M18.7,11.4L18.3,11c-0.3-0.3-0.3-0.7,0-1l6-6c0.3-0.3,0.7-0.3,1,0l0.4,0.4c0.3,0.3,0.3,0.7,0,1l-6,6
		C19.4,11.7,19,11.7,18.7,11.4z"/>
	<path class="st18" d="M20.9,13.1l-0.3-0.3c-0.3-0.3-0.3-0.7,0-1l5.5-5.5c0.3-0.3,0.7-0.3,1,0l0.3,0.3c0.3,0.3,0.3,0.7,0,1l-5.5,5.5
		C21.6,13.4,21.2,13.4,20.9,13.1z"/>
	<path class="st18" d="M27.5,19.5l-0.3-0.3c-0.3-0.3-0.3-0.7,0-1l5.3-5.3c0.3-0.3,0.7-0.3,1,0l0.3,0.3c0.3,0.3,0.3,0.7,0,1l-5.3,5.3
		C28.2,19.8,27.8,19.8,27.5,19.5z"/>
	<path class="st18" d="M23.6,20.2l-0.2,0.2c-0.3,0.3-0.7,0.3-1,0l-2.2-2.2c-0.3-0.3-0.3-0.7,0-1l0.2-0.2c0.3-0.3,0.7-0.3,1,0
		l2.2,2.2C23.9,19.5,23.9,19.9,23.6,20.2z"/>
</g>
<g id="Layer_22">
	<circle class="st19" cx="20" cy="20" r="16"/>
	<line class="st20" x1="12.3" y1="12.3" x2="27.8" y2="27.8"/>
	<line class="st20" x1="27.8" y1="12.3" x2="12.3" y2="27.8"/>
</g>
<g id="hide" class="st0">
	<path class="st2" d="M25.3,11.5l-3,3c-0.7-0.3-1.5-0.5-2.3-0.5c-3.2,0-5.8,2.6-5.8,5.8c0,0.8,0.2,1.6,0.5,2.3l-4.2,4.2
		c-4.7-2.7-8-6.4-8-6.4s8.2-9.3,17.5-9.3C21.8,10.6,23.6,10.9,25.3,11.5z"/>
	<path class="st2" d="M29,13.2L35.2,7c0.2-0.2,0.3-0.5,0.3-0.8c0-0.3-0.1-0.6-0.3-0.8c-0.1-0.1-0.2-0.2-0.3-0.2
		c-0.4-0.2-1-0.1-1.3,0.2L4.8,34c-0.1,0.1-0.2,0.3-0.3,0.4c0,0.1-0.1,0.3-0.1,0.4c0,0.3,0.1,0.6,0.3,0.8c0.5,0.5,1.2,0.5,1.6,0
		l7.6-7.6c1.9,0.7,3.9,1.2,5.9,1.2c9.3,0,17.5-9.3,17.5-9.3S34,15.9,29,13.2z M20,25.7c-1,0-2-0.3-2.9-0.7l7.9-7.9
		c0.5,0.8,0.7,1.8,0.7,2.9C25.8,23.1,23.2,25.7,20,25.7z"/>
</g>
<g id="Layer_12" class="st0">
	<ellipse class="st2" cx="8.5" cy="33.8" rx="5.1" ry="4.5"/>
	<ellipse class="st2" cx="29" cy="27.3" rx="5.1" ry="4.5"/>
	<line class="st21" x1="12.6" y1="34.1" x2="12.6" y2="7.8"/>
	<line class="st21" x1="33.1" y1="27.7" x2="33.1" y2="4"/>
	<line class="st22" x1="13.6" y1="7.8" x2="32.1" y2="4"/>
	<line class="st21" x1="12.6" y1="13.3" x2="33.1" y2="9.4"/>
</g>
<g id="Layer_13" class="st0">
	<line class="st23" x1="6" y1="30.5" x2="6" y2="34.5"/>
	<line class="st23" x1="34" y1="30.5" x2="34" y2="34.5"/>
	<line class="st23" x1="6" y1="34.5" x2="34" y2="34.5"/>
	<path class="st2" d="M27.1,19.2l-6.6,8.9c-0.3,0.4-0.8,0.4-1.1,0l-6.6-8.9c-0.3-0.4,0-1.1,0.5-1.1h2.4c0.4,0,0.7-0.3,0.7-0.7V5.9
		c0-0.4,0.3-0.7,0.7-0.7h5.7c0.4,0,0.7,0.3,0.7,0.7v11.5c0,0.4,0.3,0.7,0.7,0.7h2.4C27.1,18.1,27.4,18.7,27.1,19.2z"/>
</g>
<g id="url" class="st0">
	<path class="st24" d="M36,20.7c-0.3,8.2-6.8,14.8-15,15.3c1-1.3,1.7-3.3,4-5c4-3-2-3-4-2s-4-6-5-10s-7,0-6,5c0.8,4-1.6,3.9-2.6,5.9
		C5.3,27.2,4,23.7,4,20C4,12.5,9.2,6.2,16.2,4.5C13.7,6.7,11.6,9.8,14,9c3-1,10,1,10,3s3,12,4,9s0-9,2-8s2,8,4,8
		C34.6,21,35.3,20.9,36,20.7z"/>
	<path class="st25" d="M25,31c-2.3,1.7-2.9,3.7-4,5c-0.3,0-0.7,0-1,0c-5.1,0-9.6-2.4-12.6-6.1c1-2,3.4-1.9,2.6-5.9c-1-5,5-9,6-5
		s3,11,5,10S29,28,25,31z"/>
	<path class="st25" d="M36,20c0,0.2,0,0.5,0,0.7c-0.7,0.2-1.4,0.3-2,0.3c-2,0-2-7-4-8s-1,5-2,8s-4-7-4-9s-7-4-10-3
		c-2.4,0.8-0.3-2.3,2.2-4.5C17.4,4.2,18.7,4,20,4C28.8,4,36,11.2,36,20z"/>
</g>
<g id="emoticon" class="st0">
	<circle class="st26" cx="20" cy="20" r="16"/>
	<path class="st27" d="M14.2,18.2l-4.1-2.6c-3.6-2.3-0.9-6.4,2.6-4.1c2.3-3.6,6.4-1,4.1,2.6L14.2,18.2z"/>
	<path class="st27" d="M25.8,18.2l4.1-2.6c3.6-2.3,0.9-6.4-2.6-4.1c-2.3-3.6-6.4-1-4.1,2.6L25.8,18.2z"/>
	<path class="st28" d="M26,26c-3.2-3.2-7-3-9-2s-6,7-3,6s15,3,14,0S27,27,26,26z"/>
</g>
<g id="mature" class="st0">
	<path class="st29" d="M22.4,8.7h-5.8c-0.4,0-0.7-0.3-0.7-0.7V3.7c0-0.4,0.3-0.7,0.7-0.7h5.8c0.4,0,0.7,0.3,0.7,0.7V8
		C23.1,8.4,22.8,8.7,22.4,8.7z"/>
	<path class="st29" d="M29,17v16.2c0,2.1-1.7,3.8-3.7,3.8H13.8c-2.1,0-3.7-1.7-3.7-3.8V17c0-2.1,1.7-3.8,3.7-3.8h1.7
		c0.7,0,1.2-0.6,1.2-1.2V8.7h5.6v3.3c0,0.7,0.6,1.3,1.2,1.3h1.7C27.3,13.2,29,14.9,29,17z"/>
	<rect x="10" y="20" class="st30" width="19" height="11"/>
	<g class="st31">
		<path class="st32" d="M16.6,29h-1.2l-1.7-2.8L11.9,29h-1.2l2.3-3.6L10.9,22h1.1l1.6,2.6l1.6-2.6h1.1l-2.2,3.4L16.6,29z"/>
		<path class="st32" d="M22.6,29h-1.2l-1.7-2.8L18,29h-1.2l2.3-3.6L17,22h1.1l1.6,2.6l1.6-2.6h1.1l-2.2,3.4L22.6,29z"/>
		<path class="st32" d="M28.7,29h-1.2l-1.7-2.8L24,29h-1.2l2.3-3.6L23,22h1.1l1.6,2.6l1.6-2.6h1.1l-2.2,3.4L28.7,29z"/>
	</g>
</g>
<g id="Layer_9" class="st0">
	<path class="st33" d="M37,9.1v21.9c0,1.4-1.2,2.6-2.6,2.6h-2.1c0.1,0.3,0.2,0.6,0.2,1c0,2.2-2.5,4-5.5,4s-5.5-1.8-5.5-4
		c0-0.4,0.1-0.7,0.2-1H5.6c-1.4,0-2.6-1.2-2.6-2.6v-1.8c0.5,0.2,1,0.3,1.5,0.3c2.2,0,4-2,4-4.5s-1.8-4.5-4-4.5c-0.5,0-1,0.1-1.5,0.3
		V9.1c0-1.4,1.2-2.6,2.6-2.6h3.1c-0.1-0.3-0.2-0.7-0.2-1c0-2.2,2-4,4.5-4s4.5,1.8,4.5,4c0,0.3,0,0.7-0.2,1h17.1
		C35.8,6.5,37,7.6,37,9.1z"/>
</g>
<g id="pad" class="st0">
	<g class="st31">
		<path class="st34" d="M34.9,36.5H6.1c-1.4,0-2.6-1.1-2.6-2.6V12.1c0-1.4,1.1-2.6,2.6-2.6h28.9c1.4,0,2.6,1.1,2.6,2.6v21.9
			C37.5,35.4,36.4,36.5,34.9,36.5z"/>
	</g>
	<g class="st31">
		<line class="st35" x1="20" y1="9.8" x2="17.5" y2="12.3"/>
		<line class="st35" x1="20" y1="9.8" x2="22.5" y2="12.3"/>
	</g>
	<g class="st31">
		<line class="st35" x1="20" y1="30.3" x2="22.5" y2="27.8"/>
		<line class="st35" x1="20" y1="30.3" x2="17.5" y2="27.8"/>
	</g>
	<g class="st31">
		<line class="st35" x1="33.8" y1="20" x2="31.3" y2="17.5"/>
		<line class="st35" x1="33.8" y1="20" x2="31.3" y2="22.5"/>
	</g>
	<g class="st31">
		<line class="st35" x1="6.3" y1="20" x2="8.8" y2="22.5"/>
		<line class="st35" x1="6.3" y1="20" x2="8.8" y2="17.5"/>
	</g>
</g>
<g id="shortcut" class="st0">
	<path class="st36" d="M32.5,16.1H8.3c-0.7,0-1.3-0.6-1.3-1.3V9.3C7,8.6,7.6,8,8.3,8h24.2c0.7,0,1.3,0.6,1.3,1.3v5.6
		C33.7,15.6,33.2,16.1,32.5,16.1z"/>
	<rect x="10.1" y="16.1" class="st36" width="20.5" height="17.4"/>
	<line class="st37" x1="3" y1="33.5" x2="37" y2="33.5"/>
	<rect x="12" y="17" class="st38" width="3" height="15"/>
	<rect x="10" y="9" class="st38" width="3" height="6"/>
</g>
<g id="Layer_17" class="st0">
	<polygon class="st2" points="33.2,10.5 32.1,9.8 21.4,20.4 19.6,18.6 30.2,7.9 29.5,6.8 33.9,3.4 36.6,6.1 	"/>
	<path class="st39" d="M24.6,21.7L11.3,35c-0.3,0.3-0.7,0.5-1.1,0.5c-0.2,0-0.3,0-0.5,0.2l-0.4,0.4c-0.3,0.3-0.8,0.3-1.1,0l-4.3-4.3
		c-0.3-0.3-0.3-0.8,0-1.1l0.4-0.4c0.1-0.1,0.2-0.3,0.2-0.5c0-0.4,0.2-0.8,0.5-1.1l13.3-13.3c0.6-0.6,1.4-0.6,1.9-0.1l4.5,4.5
		C25.3,20.3,25.2,21.1,24.6,21.7z"/>
	<path class="st40" d="M23.6,20.7L10.3,34c-0.3,0.3-0.6,0.5-0.9,0.6c-0.1,0.1-0.3,0.1-0.4,0.3l-0.4,0.4c-0.3,0.3-0.6,0.4-0.8,0.3
		L6,33.8c-0.1-0.1,0-0.5,0.3-0.8l0.4-0.4C6.9,32.5,7,32.4,7,32.2c0.1-0.3,0.3-0.6,0.6-0.9L21,18c0.6-0.6,1.2-0.9,1.4-0.7l1.9,1.9
		C24.5,19.5,24.2,20.1,23.6,20.7z"/>
	<path class="st2" d="M30,26.3L13.7,10c0.1-0.4,0.2-0.9,0.2-1.3c0-1.3-0.5-2.6-1.5-3.6c-1-1-2.3-1.5-3.6-1.5c-0.2,0-0.4,0-0.6,0
		l2.6,2.6v2.6l-1.9,1.9H6.3L3.7,8.2c0,0.2,0,0.4,0,0.6c0,1.3,0.5,2.6,1.5,3.6c1.3,1.3,3.2,1.8,4.9,1.3L26.3,30
		c-0.1,0.4-0.2,0.9-0.2,1.3c0,1.3,0.5,2.6,1.5,3.6c2,2,5.2,2,7.2,0c1-1,1.5-2.3,1.5-3.6c0-1.3-0.5-2.6-1.5-3.6c-1-1-2.3-1.5-3.6-1.5
		C30.8,26.2,30.4,26.2,30,26.3z M33.1,33.1c-1,1-2.6,1-3.6,0c-1-1-1-2.6,0-3.6c1-1,2.6-1,3.6,0C34.1,30.5,34.1,32.1,33.1,33.1z"/>
	<rect x="9.2" y="18.8" transform="matrix(0.7071 0.7071 -0.7071 0.7071 19.5821 -8.586)" class="st41" width="21.9" height="1.1"/>
</g>
<g id="img" class="st0">
	<path class="st42" d="M34.4,6.5H5.6C4.2,6.5,3,7.6,3,9.1v21.9c0,1.4,1.2,2.6,2.6,2.6h28.9c1.4,0,2.6-1.2,2.6-2.6V9.1
		C37,7.6,35.8,6.5,34.4,6.5z M35,29.3c0,1.4-1.2,2.6-2.6,2.6H7.6c-1.4,0-2.6-1.1-2.6-2.6V10.6c0-1.4,1.2-2.6,2.6-2.6h24.9
		c1.4,0,2.6,1.2,2.6,2.6V29.3z"/>
	<path class="st43" d="M29,16c-0.3,0-0.6,0.1-0.8,0.2H33v11.5c0,0.8-0.3,1.5-0.9,1.9c-0.5,0.4-1,0.6-1.7,0.6H9.6
		c-1.4,0-2.6-1.1-2.6-2.6V12.2c0-1.4,1.2-2.6,2.6-2.6h20.9c1.4,0,2.6,1.1,2.6,2.6v3c-0.4-0.1-0.9-0.2-1.5-0.2C30.1,15,29,15.5,29,16
		L29,16z"/>
	<path class="st44" d="M32.1,29.7c-0.5,0.4-1,0.6-1.7,0.6H11.7c0-0.2,0-0.4,0.1-0.6l4.5-6.7c0.1,0.1,0.3,0.1,0.6-0.1c2-1,3-1,4,0
		s4,1,4,0s1.7-0.7,2.4-0.3L32.1,29.7z"/>
	<path class="st2" d="M27.4,22.7C26.7,22.3,25,22,25,23s-3,1-4,0s-2-1-4,0c-0.4,0.2-0.6,0.2-0.6,0.1l5-7.4c0.3-0.5,1-0.5,1.3,0
		L27.4,22.7z"/>
	<path class="st2" d="M17,15H8c0-0.5,0.9-1,2-1c0.4,0,0.8,0,1.1,0.1c0.2-0.7,1-1.1,1.9-1.1c0.9,0,1.7,0.5,1.9,1.1
		c0.2,0,0.4-0.1,0.6-0.1C16.3,14,17,14.5,17,15z"/>
	<path class="st2" d="M33,15.2v1h-4.8c0.2-0.1,0.5-0.2,0.8-0.2v0c0-0.5,1.1-1,2.5-1C32.1,15,32.6,15.1,33,15.2z"/>
	<path class="st2" d="M16,21.5h-3c-0.1,0-0.1,0-0.2,0c0,0,0,0,0,0H8C8,21.2,8.7,21,9.5,21c0.2,0,0.3,0,0.5,0v0c0-0.5,0.7-1,1.5-1
		c0.6,0,1.1,0.2,1.3,0.5c0.1,0,0.1,0,0.2,0c0.3,0,0.5,0.2,0.5,0.5C14.9,21,16,21.2,16,21.5z"/>
	<path class="st45" d="M13,21.5h-0.2c0,0,0,0,0,0C12.9,21.5,12.9,21.5,13,21.5z"/>
</g>
<g id="Layer_4" class="st0">
	<rect x="9" y="6" class="st2" width="22" height="3"/>
	<rect x="4" y="14.3" class="st2" width="32" height="3"/>
	<rect x="10" y="22.7" class="st2" width="20" height="3"/>
	<rect x="2" y="31" class="st2" width="36" height="3"/>
</g>
<g id="Layer_5" class="st0">
	<rect x="2" y="6" class="st2" width="22" height="3"/>
	<rect x="2" y="14.3" class="st2" width="32" height="3"/>
	<rect x="2" y="22.7" class="st2" width="20" height="3"/>
	<rect x="2" y="31" class="st2" width="36" height="3"/>
</g>
<g id="Layer_6" class="st0">
	<rect x="16" y="6" class="st2" width="22" height="3"/>
	<rect x="6" y="14.3" class="st2" width="32" height="3"/>
	<rect x="18" y="22.7" class="st2" width="20" height="3"/>
	<rect x="2" y="31" class="st2" width="36" height="3"/>
</g>
<g id="color" class="st0">
	<circle class="st46" cx="26" cy="25" r="10"/>
	<circle class="st47" cx="14" cy="25" r="10"/>
	<circle class="st48" cx="20" cy="15" r="10"/>
</g>
<g id="Layer_2" class="st0">
	<line class="st49" x1="-3" y1="33" x2="-28" y2="33"/>
	<line class="st49" x1="-3" y1="8" x2="-28" y2="8"/>
</g>
</svg>
