<?xml version="1.0" encoding="utf-8"?>
<!-- Generator: Adobe Illustrator 24.1.1, SVG Export Plug-In . SVG Version: 6.00 Build 0)  -->
<svg version="1.1" xmlns="http://www.w3.org/2000/svg" xmlns:xlink="http://www.w3.org/1999/xlink" x="0px" y="0px"
	 viewBox="0 0 40 40" style="enable-background:new 0 0 40 40;" xml:space="preserve">
<style type="text/css">
	.st0{display:none;}
	.st1{display:inline;fill:none;}
	.st2{fill:#CECECE;}
	.st3{font-family:'SitkaText-Bold';}
	.st4{font-size:53px;}
	.st5{font-family:'SitkaText-Italic';}
	.st6{font-family:'SitkaText';}
	.st7{font-size:48px;}
	.st8{font-family:'SitkaHeading';}
	.st9{font-size:36px;}
	.st10{display:inline;fill:#CECECE;}
	.st11{font-family:'Consolas-Bold';}
	.st12{font-size:24px;}
	.st13{letter-spacing:-2;}
	.st14{font-size:32px;}
	.st15{font-size:40px;}
	.st16{font-size:15px;}
	.st17{font-size:60px;}
	.st18{font-family:'Consolas';}
	.st19{font-size:25px;}
	.st20{fill:none;stroke:#CECECE;stroke-width:2;stroke-linecap:round;stroke-miterlimit:10;}
	.st21{display:inline;fill:none;stroke:#CECECE;stroke-width:2;stroke-miterlimit:10;}
	.st22{display:inline;fill:none;stroke:#CECECE;stroke-width:4;stroke-linecap:round;stroke-miterlimit:10;}
	.st23{fill:none;stroke:#CECECE;stroke-width:3;stroke-linecap:round;stroke-miterlimit:10;}
	.st24{display:inline;fill:#75B6CC;}
	.st25{display:inline;fill:#63E58E;}
	.st26{display:inline;opacity:0.5;fill:#CECECE;}
	.st27{display:inline;fill:none;stroke:#CECECE;stroke-width:1.5;stroke-linecap:round;stroke-miterlimit:10;}
	.st28{display:inline;opacity:0.25;fill:#3C8199;}
	.st29{display:inline;fill:#998D77;}
	.st30{display:inline;fill:#82A5A8;}
	.st31{display:inline;fill:#64CC66;}
	.st32{display:inline;fill:#5B90C4;}
	.st33{display:inline;fill:#CC5A5A;}
	.st34{fill:none;stroke:#000000;stroke-width:0.25;stroke-miterlimit:10;}
</style>
<g id="Layer_1" class="st0">
	<rect class="st1" width="40" height="40"/>
	<text transform="matrix(1 0 0 1 2.1216 36.4629)" class="st2 st3 st4">B</text>
	<rect class="st1" width="40" height="40"/>
	<text transform="matrix(1 0 0 1 10.1538 36.4629)" class="st2 st5 st4">I</text>
	<rect class="st1" width="40" height="40"/>
	<text transform="matrix(1 0 0 1 2.4004 33.0234)" class="st2 st6 st7" style="text-decoration: underline;">U</text>
	<rect class="st1" width="40" height="40"/>
	<text transform="matrix(1 0 0 1 5.1016 36.4629)" class="st2 st6 st4" style="text-decoration: line-through;">S</text>
	<rect class="st1" width="40" height="40"/>
	<text transform="matrix(1 0 0 1 9.9185 36.4629)" class="st2 st3 st4">!</text>
	<rect x="0.5" y="8" class="st1" width="40" height="40"/>
	<text transform="matrix(1 0 0 1 1.2441 32.4082)" class="st2 st8 st9">h2</text>
	<rect y="11" class="st1" width="40" height="40"/>
	<text transform="matrix(1 0 0 1 2.5591 27.5596)" class="st10 st11 st12 st13">&lt;?&gt;</text>
	<rect x="10" y="13" class="st1" width="40" height="40"/>
	<text transform="matrix(1 0 0 1 21.46 33.0156)" class="st2 st6 st14">t</text>
	<rect x="-7" y="7.5" class="st1" width="40" height="40"/>
	<text transform="matrix(1 0 0 1 0.4849 33.0195)" class="st2 st6 st15">T</text>
	<rect x="-24" class="st1" width="40" height="40"/>
	<text transform="matrix(1 0 0 1 4.3936 10.3198)"><tspan x="0" y="0" class="st10 st6 st16">1.</tspan><tspan x="-1.7" y="12" class="st10 st6 st16">2.</tspan><tspan x="-1.5" y="24" class="st10 st6 st16">3.</tspan></text>
	<rect x="-16" y="9" class="st1" width="72" height="72"/>
	<text transform="matrix(1 0 0 1 4.3071 50.2793)" class="st2 st3 st17">“</text>
	<rect y="8" class="st1" width="40" height="40"/>
	<text transform="matrix(1 0 0 1 7.324219e-03 25.2495)" class="st2 st18 st19">pre</text>
	<line class="st20" x1="20" y1="7" x2="35.5" y2="7"/>
	<line class="st20" x1="20.5" y1="19.8" x2="36" y2="19.8"/>
	<line class="st20" x1="20.5" y1="32.5" x2="36" y2="32.5"/>
	<circle class="st2" cx="8" cy="7" r="3"/>
	<circle class="st2" cx="8" cy="20" r="3"/>
	<circle class="st2" cx="8" cy="33" r="3"/>
	<rect x="-41.2" y="-24" class="st1" width="14.6" height="14.8"/>
	<g>
	</g>
</g>
<g id="hide" class="st0">
	<path class="st10" d="M25.3,11.5l-3,3c-0.7-0.3-1.5-0.5-2.3-0.5c-3.2,0-5.8,2.6-5.8,5.8c0,0.8,0.2,1.6,0.5,2.3l-4.2,4.2
		c-4.7-2.7-8-6.4-8-6.4s8.2-9.3,17.5-9.3C21.8,10.6,23.6,10.9,25.3,11.5z"/>
	<path class="st10" d="M29,13.2L35.2,7c0.2-0.2,0.3-0.5,0.3-0.8c0-0.3-0.1-0.6-0.3-0.8c-0.1-0.1-0.2-0.2-0.3-0.2
		c-0.4-0.2-1-0.1-1.3,0.2L4.8,34c-0.1,0.1-0.2,0.3-0.3,0.4c0,0.1-0.1,0.3-0.1,0.4c0,0.3,0.1,0.6,0.3,0.8c0.5,0.5,1.2,0.5,1.6,0
		l7.6-7.6c1.9,0.7,3.9,1.2,5.9,1.2c9.3,0,17.5-9.3,17.5-9.3S34,15.9,29,13.2z M20,25.7c-1,0-2-0.3-2.9-0.7l7.9-7.9
		c0.5,0.8,0.7,1.8,0.7,2.9C25.8,23.1,23.2,25.7,20,25.7z"/>
</g>
<g id="Layer_12" class="st0">
	<ellipse class="st10" cx="8.5" cy="33.8" rx="5.1" ry="4.5"/>
	<ellipse class="st10" cx="29" cy="27.3" rx="5.1" ry="4.5"/>
	<line class="st21" x1="12.6" y1="34.1" x2="12.6" y2="7.8"/>
	<line class="st21" x1="33.1" y1="27.7" x2="33.1" y2="4"/>
	<line class="st22" x1="13.6" y1="7.8" x2="32.1" y2="4"/>
	<line class="st21" x1="12.6" y1="13.3" x2="33.1" y2="9.4"/>
</g>
<g id="Layer_13">
	<line class="st23" x1="6" y1="30.5" x2="6" y2="34.5"/>
	<line class="st23" x1="34" y1="30.5" x2="34" y2="34.5"/>
	<line class="st23" x1="6" y1="34.5" x2="34" y2="34.5"/>
	<path class="st2" d="M27.1,19.2l-6.6,8.9c-0.3,0.4-0.8,0.4-1.1,0l-6.6-8.9c-0.3-0.4,0-1.1,0.5-1.1h2.4c0.4,0,0.7-0.3,0.7-0.7V5.9
		c0-0.4,0.3-0.7,0.7-0.7h5.7c0.4,0,0.7,0.3,0.7,0.7v11.5c0,0.4,0.3,0.7,0.7,0.7h2.4C27.1,18.1,27.4,18.7,27.1,19.2z"/>
</g>
<g id="url" class="st0">
	<path class="st24" d="M36,20.7c-0.3,8.2-6.8,14.8-15,15.3c1-1.3,1.7-3.3,4-5c4-3-2-3-4-2s-4-6-5-10s-7,0-6,5c0.8,4-1.6,3.9-2.6,5.9
		C5.3,27.2,4,23.7,4,20C4,12.5,9.2,6.2,16.2,4.5C13.7,6.7,11.6,9.8,14,9c3-1,10,1,10,3s3,12,4,9s0-9,2-8s2,8,4,8
		C34.6,21,35.3,20.9,36,20.7z"/>
	<path class="st25" d="M25,31c-2.3,1.7-2.9,3.7-4,5c-0.3,0-0.7,0-1,0c-5.1,0-9.6-2.4-12.6-6.1c1-2,3.4-1.9,2.6-5.9c-1-5,5-9,6-5
		s3,11,5,10S29,28,25,31z"/>
	<path class="st25" d="M36,20c0,0.2,0,0.5,0,0.7c-0.7,0.2-1.4,0.3-2,0.3c-2,0-2-7-4-8s-1,5-2,8s-4-7-4-9s-7-4-10-3
		c-2.4,0.8-0.3-2.3,2.2-4.5C17.4,4.2,18.7,4,20,4C28.8,4,36,11.2,36,20z"/>
</g>
<g id="Layer_9" class="st0">
</g>
<g id="pad" class="st0">
	<path class="st26" d="M34.4,33.5H5.6c-1.4,0-2.6-1.1-2.6-2.6V9.1c0-1.4,1.1-2.6,2.6-2.6h28.9c1.4,0,2.6,1.1,2.6,2.6v21.9
		C37,32.4,35.9,33.5,34.4,33.5z"/>
	<line class="st27" x1="20" y1="7.8" x2="16.5" y2="11.3"/>
	<line class="st27" x1="20" y1="7.8" x2="23.5" y2="11.3"/>
	<line class="st27" x1="20" y1="32.3" x2="23.5" y2="28.8"/>
	<line class="st27" x1="20" y1="32.3" x2="16.5" y2="28.8"/>
	<line class="st27" x1="35.8" y1="20" x2="32.3" y2="16.5"/>
	<line class="st27" x1="35.8" y1="20" x2="32.3" y2="23.5"/>
	<line class="st27" x1="4.3" y1="20" x2="7.8" y2="23.5"/>
	<line class="st27" x1="4.3" y1="20" x2="7.8" y2="16.5"/>
</g>
<g id="img" class="st0">
	<path class="st26" d="M34.4,6.5H5.6C4.2,6.5,3,7.6,3,9.1v21.9c0,1.4,1.2,2.6,2.6,2.6h28.9c1.4,0,2.6-1.2,2.6-2.6V9.1
		C37,7.6,35.8,6.5,34.4,6.5z M35,29.3c0,1.4-1.2,2.6-2.6,2.6H7.6c-1.4,0-2.6-1.1-2.6-2.6V10.6c0-1.4,1.2-2.6,2.6-2.6h24.9
		c1.4,0,2.6,1.2,2.6,2.6V29.3z"/>
	<path class="st28" d="M29,16c-0.3,0-0.6,0.1-0.8,0.2H33v11.5c0,0.8-0.3,1.5-0.9,1.9c-0.5,0.4-1,0.6-1.7,0.6H9.6
		c-1.4,0-2.6-1.1-2.6-2.6V12.2c0-1.4,1.2-2.6,2.6-2.6h20.9c1.4,0,2.6,1.1,2.6,2.6v3c-0.4-0.1-0.9-0.2-1.5-0.2C30.1,15,29,15.5,29,16
		L29,16z"/>
	<path class="st29" d="M32.1,29.7c-0.5,0.4-1,0.6-1.7,0.6H11.7c0-0.2,0-0.4,0.1-0.6l4.5-6.7c0.1,0.1,0.3,0.1,0.6-0.1c2-1,3-1,4,0
		s4,1,4,0s1.7-0.7,2.4-0.3L32.1,29.7z"/>
	<path class="st10" d="M27.4,22.7C26.7,22.3,25,22,25,23s-3,1-4,0s-2-1-4,0c-0.4,0.2-0.6,0.2-0.6,0.1l5-7.4c0.3-0.5,1-0.5,1.3,0
		L27.4,22.7z"/>
	<path class="st10" d="M17,15H8c0-0.5,0.9-1,2-1c0.4,0,0.8,0,1.1,0.1c0.2-0.7,1-1.1,1.9-1.1c0.9,0,1.7,0.5,1.9,1.1
		c0.2,0,0.4-0.1,0.6-0.1C16.3,14,17,14.5,17,15z"/>
	<path class="st10" d="M33,15.2v1h-4.8c0.2-0.1,0.5-0.2,0.8-0.2v0c0-0.5,1.1-1,2.5-1C32.1,15,32.6,15.1,33,15.2z"/>
	<path class="st10" d="M16,21.5h-3c-0.1,0-0.1,0-0.2,0c0,0,0,0,0,0H8C8,21.2,8.7,21,9.5,21c0.2,0,0.3,0,0.5,0v0c0-0.5,0.7-1,1.5-1
		c0.6,0,1.1,0.2,1.3,0.5c0.1,0,0.1,0,0.2,0c0.3,0,0.5,0.2,0.5,0.5C14.9,21,16,21.2,16,21.5z"/>
	<path class="st30" d="M13,21.5h-0.2c0,0,0,0,0,0C12.9,21.5,12.9,21.5,13,21.5z"/>
</g>
<g id="Layer_4" class="st0">
	<rect x="9" y="6" class="st10" width="22" height="3"/>
	<rect x="4" y="14.3" class="st10" width="32" height="3"/>
	<rect x="10" y="22.7" class="st10" width="20" height="3"/>
	<rect x="2" y="31" class="st10" width="36" height="3"/>
</g>
<g id="Layer_5" class="st0">
	<rect x="2" y="6" class="st10" width="22" height="3"/>
	<rect x="2" y="14.3" class="st10" width="32" height="3"/>
	<rect x="2" y="22.7" class="st10" width="20" height="3"/>
	<rect x="2" y="31" class="st10" width="36" height="3"/>
</g>
<g id="Layer_6" class="st0">
	<rect x="16" y="6" class="st10" width="22" height="3"/>
	<rect x="6" y="14.3" class="st10" width="32" height="3"/>
	<rect x="18" y="22.7" class="st10" width="20" height="3"/>
	<rect x="2" y="31" class="st10" width="36" height="3"/>
</g>
<g id="color" class="st0">
	<circle class="st31" cx="26" cy="25" r="10"/>
	<circle class="st32" cx="14" cy="25" r="10"/>
	<circle class="st33" cx="20" cy="15" r="10"/>
</g>
<g id="Layer_2">
	<line class="st34" x1="-3" y1="33" x2="-28" y2="33"/>
	<line class="st34" x1="-3" y1="8" x2="-28" y2="8"/>
</g>
</svg>
