<?xml version="1.0" encoding="utf-8"?>
<!-- Generator: Adobe Illustrator 24.1.1, SVG Export Plug-In . SVG Version: 6.00 Build 0)  -->
<svg version="1.1" xmlns="http://www.w3.org/2000/svg" xmlns:xlink="http://www.w3.org/1999/xlink" x="0px" y="0px"
	 viewBox="0 0 40 40" style="enable-background:new 0 0 40 40;" xml:space="preserve">
<style type="text/css">
	.st0{fill:none;}
	.st1{display:none;fill:#CECECE;}
	.st2{font-family:'SitkaText-Bold';}
	.st3{font-size:53px;}
	.st4{font-family:'SitkaText-Italic';}
	.st5{font-family:'SitkaText';}
	.st6{font-size:48px;}
	.st7{font-family:'SitkaHeading';}
	.st8{font-size:36px;}
	.st9{font-family:'Consolas-Bold';}
	.st10{font-size:24px;}
	.st11{letter-spacing:-2;}
	.st12{font-size:32px;}
	.st13{font-size:40px;}
	.st14{display:none;}
	.st15{display:inline;fill:#CECECE;}
	.st16{font-size:15px;}
	.st17{letter-spacing:1;}
	.st18{fill:none;stroke:#CECECE;stroke-width:2;stroke-linecap:round;stroke-miterlimit:10;}
	.st19{fill:#CECECE;}
	.st20{display:inline;opacity:0.5;fill:#CECECE;}
	.st21{display:inline;fill:none;stroke:#CECECE;stroke-width:1.5;stroke-linecap:round;stroke-miterlimit:10;}
	.st22{display:inline;fill:#64CC66;}
	.st23{display:inline;fill:#5B90C4;}
	.st24{display:inline;fill:#CC5A5A;}
	.st25{fill:none;stroke:#000000;stroke-width:0.25;stroke-miterlimit:10;}
</style>
<g id="Layer_1">
	<rect class="st0" width="40" height="40"/>
	<text transform="matrix(1 0 0 1 2.1216 36.4629)" class="st1 st2 st3">B</text>
	<rect class="st0" width="40" height="40"/>
	<text transform="matrix(1 0 0 1 10.1538 36.4629)" class="st1 st4 st3">I</text>
	<rect class="st0" width="40" height="40"/>
	<text transform="matrix(1 0 0 1 2.4004 33.0234)" class="st1 st5 st6" style="text-decoration: underline;">U</text>
	<rect class="st0" width="40" height="40"/>
	<text transform="matrix(1 0 0 1 5.1016 36.4629)" class="st1 st5 st3" style="text-decoration: line-through;">S</text>
	<rect class="st0" width="40" height="40"/>
	<text transform="matrix(1 0 0 1 9.9185 36.4629)" class="st1 st2 st3">!</text>
	<rect x="0.5" y="8" class="st0" width="40" height="40"/>
	<text transform="matrix(1 0 0 1 1.2441 32.4082)" class="st1 st7 st8">h2</text>
	<rect y="11" class="st0" width="40" height="40"/>
	<text transform="matrix(1 0 0 1 2.5591 27.5596)" class="st1 st9 st10 st11">&lt;/&gt;</text>
	<rect x="10" y="13" class="st0" width="40" height="40"/>
	<text transform="matrix(1 0 0 1 21.46 33.0156)" class="st1 st5 st12">t</text>
	<rect x="-7" y="7.5" class="st0" width="40" height="40"/>
	<text transform="matrix(1 0 0 1 0.4849 33.0195)" class="st1 st5 st13">T</text>
	<rect x="-24" class="st0" width="40" height="40"/>
	<text transform="matrix(1 0 0 1 4.3936 10.3198)" class="st14"><tspan x="0" y="0" class="st15 st5 st16">1.</tspan><tspan x="-1.7" y="12" class="st15 st5 st16">2.</tspan><tspan x="-1.5" y="24" class="st15 st5 st16">3.</tspan></text>
	<rect class="st0" width="40" height="40"/>
	<text transform="matrix(1 0 0 1 9.9185 36.4629)" class="st1 st2 st3">!</text>
	<rect class="st0" width="40" height="40"/>
	<text transform="matrix(1 0 0 1 9.9185 36.4629)" class="st1 st2 st3 st17">!</text>
	<line class="st18" x1="20" y1="7" x2="35.5" y2="7"/>
	<line class="st18" x1="20.5" y1="19.8" x2="36" y2="19.8"/>
	<line class="st18" x1="20.5" y1="32.5" x2="36" y2="32.5"/>
	<circle class="st19" cx="8" cy="7" r="3"/>
	<circle class="st19" cx="8" cy="20" r="3"/>
	<circle class="st19" cx="8" cy="33" r="3"/>
</g>
<g id="pad" class="st14">
	<rect x="3" y="6.5" class="st20" width="34" height="27"/>
	<line class="st21" x1="20" y1="7.8" x2="16.5" y2="11.3"/>
	<line class="st21" x1="20" y1="7.8" x2="23.5" y2="11.3"/>
	<line class="st21" x1="20" y1="32.3" x2="23.5" y2="28.8"/>
	<line class="st21" x1="20" y1="32.3" x2="16.5" y2="28.8"/>
	<line class="st21" x1="35.8" y1="20" x2="32.3" y2="16.5"/>
	<line class="st21" x1="35.8" y1="20" x2="32.3" y2="23.5"/>
	<line class="st21" x1="4.3" y1="20" x2="7.8" y2="23.5"/>
	<line class="st21" x1="4.3" y1="20" x2="7.8" y2="16.5"/>
</g>
<g id="Layer_4" class="st14">
	<rect x="9" y="6" class="st15" width="22" height="3"/>
	<rect x="4" y="14.3" class="st15" width="32" height="3"/>
	<rect x="10" y="22.7" class="st15" width="20" height="3"/>
	<rect x="2" y="31" class="st15" width="36" height="3"/>
</g>
<g id="Layer_5" class="st14">
	<rect x="2" y="6" class="st15" width="22" height="3"/>
	<rect x="2" y="14.3" class="st15" width="32" height="3"/>
	<rect x="2" y="22.7" class="st15" width="20" height="3"/>
	<rect x="2" y="31" class="st15" width="36" height="3"/>
</g>
<g id="Layer_6" class="st14">
	<rect x="16" y="6" class="st15" width="22" height="3"/>
	<rect x="6" y="14.3" class="st15" width="32" height="3"/>
	<rect x="18" y="22.7" class="st15" width="20" height="3"/>
	<rect x="2" y="31" class="st15" width="36" height="3"/>
</g>
<g id="color" class="st14">
	<circle class="st22" cx="26" cy="25" r="10"/>
	<circle class="st23" cx="14" cy="25" r="10"/>
	<circle class="st24" cx="20" cy="15" r="10"/>
</g>
<g id="Layer_2">
	<line class="st25" x1="-3" y1="33" x2="-28" y2="33"/>
	<line class="st25" x1="-3" y1="8" x2="-28" y2="8"/>
</g>
</svg>
