<?xml version="1.0" encoding="utf-8"?>
<!-- Generator: Adobe Illustrator 24.1.1, SVG Export Plug-In . SVG Version: 6.00 Build 0)  -->
<svg version="1.1" id="Layer_1" xmlns="http://www.w3.org/2000/svg" xmlns:xlink="http://www.w3.org/1999/xlink" x="0px" y="0px"
	 viewBox="0 0 128 128" style="enable-background:new 0 0 128 128;" xml:space="preserve">
<style type="text/css">
	.st0{fill:#CECECE;}
	.st1{fill:none;}
</style>
<g>
	<path class="st0" d="M48,4C22.6,4,2,24.6,2,50c0,25.4,20.6,46,46,46s46-20.6,46-46C94,24.6,73.4,4,48,4z M48,69
		c-10.5,0-19-8.5-19-19s8.5-19,19-19s19,8.5,19,19S58.5,69,48,69z"/>
</g>
<circle class="st0" cx="48" cy="50" r="3"/>
<g>
	<rect y="102.1" class="st1" width="128" height="32.9"/>
	<path class="st0" d="M13.4,125l-1.6-4.7c-0.3-0.9-0.7-1.6-1.2-2.2c-0.5-0.5-1-0.8-1.6-0.8H8.7v7.6H2.1v-21.7h8.7
		c3,0,5.3,0.5,6.7,1.5c1.4,1,2.2,2.5,2.2,4.5c0,1.5-0.4,2.7-1.3,3.8c-0.8,1-2.1,1.7-3.8,2.2v0.1c0.9,0.3,1.7,0.7,2.3,1.4
		c0.6,0.6,1.2,1.6,1.6,2.8l2.1,5.5H13.4z M12.8,110.2c0-0.7-0.2-1.3-0.7-1.7c-0.4-0.4-1.1-0.6-2.1-0.6H8.7v5h1.2
		c0.9,0,1.6-0.2,2.1-0.7C12.5,111.6,12.8,111,12.8,110.2z"/>
	<path class="st0" d="M23.3,125v-21.7h13.5v5.1h-7v3.2h6.6v5.1h-6.6v3.2h7.5v5.1H23.3z"/>
	<path class="st0" d="M56.5,124.4c-1.8,0.6-3.9,1-6.2,1c-2.3,0-4.3-0.4-6-1.3c-1.7-0.9-3-2.1-3.8-3.8c-0.9-1.6-1.3-3.5-1.3-5.6
		c0-2.3,0.5-4.3,1.5-6.1c1-1.8,2.4-3.2,4.2-4.1c1.8-1,3.9-1.5,6.2-1.5c1.9,0,3.7,0.2,5.4,0.7v6c-0.6-0.4-1.3-0.6-2.2-0.8
		c-0.8-0.2-1.7-0.3-2.5-0.3c-1.8,0-3.2,0.5-4.2,1.5c-1,1-1.5,2.4-1.5,4.1c0,1.7,0.5,3.1,1.5,4.1c1,1,2.4,1.5,4.1,1.5
		c1.6,0,3.2-0.4,4.8-1.2V124.4z"/>
	<path class="st0" d="M80.6,114.1c0,2.2-0.5,4.1-1.4,5.9c-0.9,1.7-2.3,3.1-3.9,4c-1.7,1-3.6,1.4-5.7,1.4c-2,0-3.9-0.5-5.6-1.4
		c-1.7-0.9-3-2.2-3.9-3.9c-0.9-1.7-1.4-3.6-1.4-5.7c0-2.2,0.5-4.2,1.4-6s2.3-3.1,4-4.1c1.7-1,3.6-1.4,5.8-1.4c2.1,0,3.9,0.5,5.6,1.4
		c1.6,0.9,2.9,2.2,3.8,4C80.1,110,80.6,112,80.6,114.1z M73.6,114.3c0-1.8-0.3-3.2-1-4.2s-1.6-1.5-2.8-1.5c-1.3,0-2.3,0.5-3,1.5
		s-1.1,2.4-1.1,4.2c0,1.8,0.4,3.1,1.1,4.1c0.7,1,1.7,1.5,2.9,1.5c0.8,0,1.4-0.2,2-0.7s1.1-1.1,1.4-1.9
		C73.5,116.4,73.6,115.4,73.6,114.3z"/>
	<path class="st0" d="M94.9,125l-1.6-4.7c-0.3-0.9-0.7-1.6-1.2-2.2c-0.5-0.5-1-0.8-1.6-0.8h-0.3v7.6h-6.5v-21.7h8.7
		c3,0,5.3,0.5,6.7,1.5s2.2,2.5,2.2,4.5c0,1.5-0.4,2.7-1.3,3.8s-2.1,1.7-3.8,2.2v0.1c0.9,0.3,1.7,0.7,2.3,1.4
		c0.6,0.6,1.2,1.6,1.6,2.8l2.1,5.5H94.9z M94.3,110.2c0-0.7-0.2-1.3-0.7-1.7s-1.1-0.6-2.1-0.6h-1.3v5h1.2c0.9,0,1.6-0.2,2.1-0.7
		C94,111.6,94.3,111,94.3,110.2z"/>
	<path class="st0" d="M125.2,113.9c0,2.2-0.5,4.1-1.4,5.8c-0.9,1.7-2.2,3-4,3.9c-1.7,0.9-3.7,1.4-5.9,1.4h-9.2v-21.7h9
		C121.4,103.3,125.2,106.9,125.2,113.9z M118.3,114c0-1.1-0.2-2-0.6-2.9s-1-1.5-1.8-2s-1.7-0.7-2.8-0.7h-1.7v11.5h1.8
		c1.6,0,2.8-0.5,3.7-1.6C117.8,117.2,118.3,115.8,118.3,114z"/>
</g>
<g>
	<path class="st0" d="M125.4,96.7h-21.7v-6.5h16.6v-7.5h5.1V96.7z"/>
	<path class="st0" d="M125.4,66.3l-4,1v6.5l4,1v7.1l-21.7-7.5v-8.1l21.7-7V66.3z M108.4,70.4v0.2c0.2,0,0.6,0.1,1.2,0.2
		c0.6,0.1,2.9,0.7,7.1,1.8v-4.1l-5.9,1.5C110,70.2,109.1,70.4,108.4,70.4z"/>
	<path class="st0" d="M118.7,38.1c2.1,0,3.8,0.7,4.9,2.2c1.2,1.5,1.7,3.6,1.7,6.4v9.9h-21.7v-9.2c0-5.8,1.8-8.6,5.3-8.6
		c0.8,0,1.4,0.2,2.1,0.5s1.2,0.9,1.7,1.7c0.5,0.7,0.8,1.6,1,2.4h0.1c0.1-1,0.4-2,0.9-2.8c0.5-0.8,1.1-1.4,1.8-1.9
		C117.2,38.4,117.9,38.1,118.7,38.1z M110.1,45.8c-1.3,0-2,1.1-2,3.2v1.2h4.1v-1.9c0-0.7-0.2-1.3-0.6-1.8
		C111.2,46,110.7,45.8,110.1,45.8z M118.7,45.1c-0.6,0-1.1,0.2-1.5,0.7c-0.4,0.5-0.6,1.1-0.6,1.8v2.6h4.4V48c0-0.9-0.2-1.6-0.6-2.1
		C119.9,45.3,119.4,45.1,118.7,45.1z"/>
	<path class="st0" d="M125.4,35.3h-21.7V21.7h5.1v7h3.2v-6.6h5.1v6.6h3.2v-7.5h5.1V35.3z"/>
	<path class="st0" d="M125.4,18.2h-21.7v-6.5h16.6V4.1h5.1V18.2z"/>
</g>
<g>
</g>
<g>
</g>
<g>
</g>
<g>
</g>
<g>
</g>
<g>
</g>
<g>
</g>
<g>
</g>
<g>
</g>
<g>
</g>
<g>
</g>
<g>
</g>
<g>
</g>
<g>
</g>
<g>
</g>
</svg>
