<?xml version="1.0" encoding="utf-8"?>
<!-- Generator: Adobe Illustrator 24.1.1, SVG Export Plug-In . SVG Version: 6.00 Build 0)  -->
<svg version="1.1" id="Layer_1" xmlns="http://www.w3.org/2000/svg" xmlns:xlink="http://www.w3.org/1999/xlink" x="0px" y="0px"
	 viewBox="0 0 128 128" style="enable-background:new 0 0 128 128;" xml:space="preserve">
<style type="text/css">
	.st0{fill:#CECECE;}
	.st1{fill:none;}
</style>
<g>
	<path class="st0" d="M48,4C22.6,4,2,24.6,2,50c0,25.4,20.6,46,46,46s46-20.6,46-46C94,24.6,73.4,4,48,4z M48,74
		c-13.3,0-24-10.7-24-24s10.7-24,24-24s24,10.7,24,24S61.3,74,48,74z"/>
</g>
<circle class="st0" cx="48" cy="50" r="7"/>
<g>
	<rect x="1" y="102.1" class="st1" width="128" height="32.9"/>
	<path class="st0" d="M22.4,125.8h-5.8l-3.5-5.8c-0.3-0.4-0.5-0.8-0.8-1.2c-0.2-0.3-0.5-0.6-0.7-0.9c-0.2-0.2-0.5-0.4-0.8-0.6
		c-0.3-0.1-0.6-0.2-0.9-0.2H8.6v8.6h-5v-22.4h8c5.4,0,8.2,2,8.2,6.1c0,0.8-0.1,1.5-0.4,2.2c-0.2,0.7-0.6,1.3-1,1.8s-1,1-1.6,1.4
		c-0.6,0.4-1.3,0.7-2.1,0.9v0.1c0.3,0.1,0.7,0.3,1,0.5s0.6,0.5,0.9,0.8c0.3,0.3,0.6,0.6,0.8,1s0.5,0.7,0.7,1.1L22.4,125.8z
		 M8.6,107.2v6.2h2.2c1.1,0,2-0.3,2.6-0.9c0.7-0.6,1-1.4,1-2.4c0-2-1.2-2.9-3.5-2.9H8.6z"/>
	<path class="st0" d="M37.9,125.8H24.5v-22.4h12.9v4.1h-7.9v5h7.3v4.1h-7.3v5.1h8.4V125.8z"/>
	<path class="st0" d="M57.5,125c-1.6,0.8-3.8,1.2-6.4,1.2c-3.4,0-6.1-1-8.1-3c-2-2-3-4.7-3-8.1c0-3.6,1.1-6.5,3.3-8.7
		c2.2-2.2,5.1-3.3,8.6-3.3c2.2,0,4,0.3,5.5,0.8v4.9c-1.5-0.9-3.2-1.3-5.1-1.3c-2.1,0-3.8,0.7-5.1,2c-1.3,1.3-1.9,3.1-1.9,5.4
		c0,2.2,0.6,3.9,1.8,5.2c1.2,1.3,2.9,1.9,4.9,1.9c2,0,3.8-0.5,5.4-1.4V125z"/>
	<path class="st0" d="M70.5,126.2c-3.2,0-5.8-1-7.8-3.1c-2-2.1-3-4.8-3-8.2c0-3.5,1-6.4,3.1-8.6c2.1-2.2,4.8-3.3,8.2-3.3
		c3.2,0,5.8,1,7.8,3.1c2,2.1,3,4.9,3,8.3c0,3.5-1,6.4-3.1,8.5S73.8,126.2,70.5,126.2z M70.8,107.3c-1.8,0-3.2,0.7-4.2,2
		c-1,1.3-1.6,3.1-1.6,5.3c0,2.2,0.5,4,1.6,5.3c1,1.3,2.4,1.9,4.1,1.9c1.7,0,3.1-0.6,4.1-1.9c1-1.3,1.5-3,1.5-5.2
		c0-2.3-0.5-4.1-1.5-5.4C73.8,108,72.5,107.3,70.8,107.3z"/>
	<path class="st0" d="M104.1,125.8h-5.8l-3.5-5.8c-0.3-0.4-0.5-0.8-0.8-1.2c-0.2-0.3-0.5-0.6-0.7-0.9c-0.2-0.2-0.5-0.4-0.8-0.6
		c-0.3-0.1-0.6-0.2-0.9-0.2h-1.4v8.6h-5v-22.4h8c5.4,0,8.2,2,8.2,6.1c0,0.8-0.1,1.5-0.4,2.2c-0.2,0.7-0.6,1.3-1,1.8s-1,1-1.6,1.4
		c-0.6,0.4-1.3,0.7-2.1,0.9v0.1c0.3,0.1,0.7,0.3,1,0.5s0.6,0.5,0.9,0.8c0.3,0.3,0.6,0.6,0.8,1s0.5,0.7,0.7,1.1L104.1,125.8z
		 M90.4,107.2v6.2h2.2c1.1,0,2-0.3,2.6-0.9c0.7-0.6,1-1.4,1-2.4c0-2-1.2-2.9-3.5-2.9H90.4z"/>
	<path class="st0" d="M106.2,125.8v-22.4h7.9c8,0,11.9,3.6,11.9,10.9c0,3.5-1.1,6.3-3.3,8.4c-2.2,2.1-5.1,3.1-8.7,3.1H106.2z
		 M111.3,107.5v14.2h2.5c2.2,0,3.9-0.7,5.1-2c1.2-1.3,1.9-3.1,1.9-5.4c0-2.1-0.6-3.8-1.9-5c-1.2-1.2-3-1.8-5.2-1.8H111.3z"/>
</g>
<g>
	<path class="st0" d="M125.4,81.9v13.3H103v-5h18.3v-8.3H125.4z"/>
	<path class="st0" d="M125.4,58.5V64l-5,1.6v8l5,1.6v5.5L103,72.5v-6L125.4,58.5z M116.5,66.8l-7.5,2.4c-0.6,0.2-1.2,0.3-2,0.4v0.1
		c0.7,0.1,1.3,0.2,2,0.4l7.6,2.4V66.8z"/>
	<path class="st0" d="M125.4,55.7H103v-8.2c0-2.5,0.5-4.4,1.4-5.8s2.2-2,3.9-2c1.2,0,2.3,0.4,3.2,1.2c0.9,0.8,1.5,1.9,1.9,3.1h0.1
		c0.2-1.6,0.8-2.9,1.8-3.8s2.2-1.4,3.6-1.4c2.1,0,3.7,0.7,4.9,2.2s1.8,3.5,1.8,6V55.7z M106.7,50.7h5.3v-2.2c0-1-0.3-1.9-0.8-2.5
		c-0.5-0.6-1.2-0.9-2.1-0.9c-1.6,0-2.5,1.2-2.5,3.7V50.7z M115.7,50.7h5.9v-2.7c0-1.2-0.3-2.1-0.8-2.7c-0.5-0.7-1.3-1-2.2-1
		c-0.9,0-1.6,0.3-2.1,1c-0.5,0.7-0.8,1.6-0.8,2.7V50.7z"/>
	<path class="st0" d="M125.4,21.8v13.4H103V22.3h4.1v7.9h5v-7.3h4.1v7.3h5.1v-8.4H125.4z"/>
	<path class="st0" d="M125.4,4.8v13.3H103v-5h18.3V4.8H125.4z"/>
</g>
<g>
</g>
<g>
</g>
<g>
</g>
<g>
</g>
<g>
</g>
<g>
</g>
<g>
</g>
<g>
</g>
<g>
</g>
<g>
</g>
<g>
</g>
<g>
</g>
<g>
</g>
<g>
</g>
<g>
</g>
</svg>
