<?xml version="1.0" encoding="utf-8"?>
<!-- Generator: Adobe Illustrator 24.1.1, SVG Export Plug-In . SVG Version: 6.00 Build 0)  -->
<svg version="1.1" xmlns="http://www.w3.org/2000/svg" xmlns:xlink="http://www.w3.org/1999/xlink" x="0px" y="0px"
	 viewBox="0 0 128 128" style="enable-background:new 0 0 128 128;" xml:space="preserve">
<style type="text/css">
	.st0{display:none;}
	.st1{display:inline;}
	.st2{fill:none;}
	.st3{fill:#CECECE;}
	.st4{display:inline;fill:#CECECE;}
</style>
<g id="TEXT">
</g>
<g id="PERSONAL" class="st0">
	<g class="st1">
		<rect x="0" y="102.1" class="st2" width="136" height="32.9"/>
		<path class="st3" d="M6.1,118.1v7.7H2v-22.4h6.3c4.5,0,6.8,2.4,6.8,7.1c0,2.3-0.6,4.1-1.9,5.5s-3,2.1-5.2,2.1H6.1z M6.1,107.3v7
			h1.6c2.2,0,3.2-1.2,3.2-3.5c0-2.3-1.1-3.5-3.2-3.5H6.1z"/>
		<path class="st3" d="M28,125.8H17.2v-22.4h10.3v4.1h-6.3v5h5.9v4.1h-5.9v5.1H28V125.8z"/>
		<path class="st3" d="M45.4,125.8h-4.6l-2.8-5.8c-0.2-0.4-0.4-0.8-0.6-1.2c-0.2-0.3-0.4-0.6-0.6-0.9c-0.2-0.2-0.4-0.4-0.6-0.6
			c-0.2-0.1-0.4-0.2-0.7-0.2h-1.1v8.6h-4v-22.4h6.4c4.3,0,6.5,2,6.5,6.1c0,0.8-0.1,1.5-0.3,2.2c-0.2,0.7-0.5,1.3-0.8,1.8
			s-0.8,1-1.3,1.4c-0.5,0.4-1,0.7-1.7,0.9v0.1c0.3,0.1,0.5,0.3,0.8,0.5s0.5,0.5,0.7,0.8c0.2,0.3,0.5,0.6,0.7,1s0.4,0.7,0.6,1.1
			L45.4,125.8z M34.4,107.2v6.2h1.8c0.9,0,1.6-0.3,2.1-0.9c0.5-0.6,0.8-1.4,0.8-2.4c0-2-0.9-2.9-2.8-2.9H34.4z"/>
		<path class="st3" d="M45.7,124.9v-5c0.7,0.8,1.5,1.3,2.4,1.7c0.9,0.4,1.7,0.6,2.6,0.6c0.5,0,1-0.1,1.3-0.2c0.4-0.1,0.7-0.3,1-0.5
			c0.3-0.2,0.4-0.4,0.6-0.7c0.1-0.3,0.2-0.6,0.2-0.9c0-0.4-0.1-0.8-0.3-1.2c-0.2-0.3-0.5-0.7-0.8-1c-0.3-0.3-0.8-0.6-1.2-0.8
			c-0.5-0.3-1-0.5-1.5-0.8c-1.4-0.7-2.4-1.6-3.1-2.7c-0.7-1.1-1-2.3-1-3.8c0-1.2,0.2-2.2,0.6-3c0.4-0.8,0.9-1.5,1.5-2.1
			c0.6-0.5,1.4-0.9,2.2-1.2c0.9-0.3,1.8-0.4,2.7-0.4c0.9,0,1.8,0.1,2.5,0.2c0.7,0.1,1.4,0.4,2,0.6v4.7c-0.3-0.3-0.6-0.5-1-0.7
			c-0.4-0.2-0.7-0.4-1.1-0.5c-0.4-0.1-0.7-0.2-1.1-0.3c-0.4-0.1-0.7-0.1-1.1-0.1c-0.5,0-0.9,0.1-1.3,0.2s-0.7,0.3-1,0.5
			c-0.3,0.2-0.5,0.4-0.6,0.7c-0.1,0.3-0.2,0.6-0.2,0.9c0,0.4,0.1,0.7,0.2,1c0.2,0.3,0.4,0.6,0.7,0.8c0.3,0.3,0.6,0.5,1.1,0.8
			c0.4,0.3,0.9,0.5,1.4,0.8c0.7,0.4,1.4,0.8,1.9,1.2s1.1,0.9,1.5,1.4s0.7,1.1,0.9,1.8c0.2,0.7,0.3,1.5,0.3,2.4
			c0,1.3-0.2,2.3-0.6,3.1c-0.4,0.8-0.9,1.5-1.5,2.1c-0.6,0.5-1.4,0.9-2.3,1.1c-0.9,0.2-1.8,0.3-2.7,0.3c-1,0-1.9-0.1-2.8-0.3
			S46.3,125.3,45.7,124.9z"/>
		<path class="st3" d="M67.9,126.2c-2.6,0-4.7-1-6.3-3.1c-1.6-2.1-2.4-4.8-2.4-8.2c0-3.5,0.8-6.4,2.5-8.6c1.6-2.2,3.8-3.3,6.5-3.3
			c2.6,0,4.6,1,6.2,3.1c1.6,2.1,2.4,4.9,2.4,8.3c0,3.5-0.8,6.4-2.5,8.5C72.7,125.1,70.5,126.2,67.9,126.2z M68.1,107.3
			c-1.4,0-2.5,0.7-3.4,2c-0.8,1.3-1.3,3.1-1.3,5.3c0,2.2,0.4,4,1.3,5.3c0.8,1.3,1.9,1.9,3.3,1.9c1.4,0,2.5-0.6,3.3-1.9
			c0.8-1.3,1.2-3,1.2-5.2c0-2.3-0.4-4.1-1.2-5.4C70.5,108,69.4,107.3,68.1,107.3z"/>
		<path class="st3" d="M95.3,125.8h-4.1l-7.4-14.1c-0.4-0.8-0.7-1.4-0.9-1.9h0c0.1,0.8,0.1,2,0.1,3.6v12.3h-3.8v-22.4h4.4l7.1,13.6
			c0.3,0.6,0.6,1.2,0.9,1.8h0.1c-0.1-0.5-0.1-1.5-0.1-3.1v-12.4h3.8V125.8z"/>
		<path class="st3" d="M114.6,125.8h-4.4l-1.3-5h-6.4l-1.3,5h-4.4l6.5-22.4h4.8L114.6,125.8z M108,116.9l-1.9-7.5
			c-0.1-0.6-0.2-1.2-0.3-2h-0.1c0,0.7-0.1,1.3-0.3,2l-2,7.6H108z"/>
		<path class="st3" d="M127,125.8h-10.7v-22.4h4v18.3h6.6V125.8z"/>
	</g>
</g>
<g id="THEME">
	<g>
		<rect x="8" y="102.1" class="st2" width="128" height="32.9"/>
		<path class="st3" d="M26.3,107.5h-6.4v18.3h-5.1v-18.3H8.5v-4.1h17.8V107.5z"/>
		<path class="st3" d="M48.7,125.8h-5.1v-9.1h-9.3v9.1h-5v-22.4h5v8.9h9.3v-8.9h5.1V125.8z"/>
		<path class="st3" d="M67.3,125.8H53.8v-22.4h12.9v4.1h-7.9v5h7.3v4.1h-7.3v5.1h8.4V125.8z"/>
		<path class="st3" d="M96.4,125.8h-5v-13.4c0-1.4,0.1-3,0.2-4.8h-0.1c-0.3,1.4-0.5,2.4-0.7,3l-5.3,15.2h-4.1L76,110.7
			c-0.1-0.4-0.4-1.4-0.7-3.1h-0.1c0.1,2.2,0.2,4.1,0.2,5.8v12.4h-4.5v-22.4h7.4l4.6,13.3c0.4,1.1,0.6,2.1,0.8,3.2h0.1
			c0.3-1.2,0.6-2.3,0.9-3.2l4.6-13.3h7.2V125.8z"/>
		<path class="st3" d="M114.9,125.8h-13.4v-22.4h12.9v4.1h-7.9v5h7.3v4.1h-7.3v5.1h8.4V125.8z"/>
	</g>
</g>
<g id="GENRE" class="st0">
	<g class="st1">
		<rect x="4" y="102.1" class="st2" width="120" height="32.9"/>
		<path class="st3" d="M33.5,124.3c-2.2,1.3-4.9,1.9-8.2,1.9c-3.6,0-6.4-1-8.5-3c-2.1-2-3.1-4.7-3.1-8.2c0-3.5,1.1-6.4,3.4-8.6
			c2.3-2.2,5.3-3.3,9.1-3.3c2.4,0,4.5,0.3,6.3,1v4.7c-1.7-1-3.8-1.5-6.3-1.5c-2.1,0-3.8,0.7-5.1,2c-1.3,1.4-2,3.2-2,5.4
			c0,2.3,0.6,4.1,1.8,5.3c1.2,1.3,2.8,1.9,4.8,1.9c1.2,0,2.2-0.2,2.9-0.5V117h-4.5v-4h9.5V124.3z"/>
		<path class="st3" d="M51.3,125.8H37.8v-22.4h12.9v4.1h-7.9v5h7.3v4.1h-7.3v5.1h8.4V125.8z"/>
		<path class="st3" d="M75,125.8h-5.1l-9.2-14.1c-0.5-0.8-0.9-1.4-1.1-1.9h-0.1c0.1,0.8,0.1,2,0.1,3.6v12.3h-4.8v-22.4h5.4l8.9,13.6
			c0.4,0.6,0.8,1.2,1.1,1.8h0.1c-0.1-0.5-0.1-1.5-0.1-3.1v-12.4H75V125.8z"/>
		<path class="st3" d="M98.9,125.8h-5.8l-3.5-5.8c-0.3-0.4-0.5-0.8-0.8-1.2c-0.2-0.3-0.5-0.6-0.7-0.9c-0.2-0.2-0.5-0.4-0.8-0.6
			c-0.3-0.1-0.6-0.2-0.9-0.2h-1.4v8.6h-5v-22.4h8c5.4,0,8.2,2,8.2,6.1c0,0.8-0.1,1.5-0.4,2.2c-0.2,0.7-0.6,1.3-1,1.8s-1,1-1.6,1.4
			c-0.6,0.4-1.3,0.7-2.1,0.9v0.1c0.3,0.1,0.7,0.3,1,0.5s0.6,0.5,0.9,0.8c0.3,0.3,0.6,0.6,0.8,1s0.5,0.7,0.7,1.1L98.9,125.8z
			 M85.2,107.2v6.2h2.2c1.1,0,2-0.3,2.6-0.9c0.7-0.6,1-1.4,1-2.4c0-2-1.2-2.9-3.5-2.9H85.2z"/>
		<path class="st3" d="M114.5,125.8H101v-22.4h12.9v4.1h-7.9v5h7.3v4.1h-7.3v5.1h8.4V125.8z"/>
	</g>
</g>
<g id="DISCO" class="st0">
	<g class="st1">
		<rect y="102.1" class="st2" width="128" height="32.9"/>
		<path class="st3" d="M7.4,125.8v-22.4h7.9c8,0,11.9,3.6,11.9,10.9c0,3.5-1.1,6.3-3.3,8.4c-2.2,2.1-5.1,3.1-8.7,3.1H7.4z
			 M12.5,107.5v14.2H15c2.2,0,3.9-0.7,5.1-2c1.2-1.3,1.9-3.1,1.9-5.4c0-2.1-0.6-3.8-1.9-5c-1.2-1.2-3-1.8-5.2-1.8H12.5z"/>
		<path class="st3" d="M36.1,125.8h-5v-22.4h5V125.8z"/>
		<path class="st3" d="M40.1,124.9v-5c0.9,0.8,1.9,1.3,3,1.7c1.1,0.4,2.1,0.6,3.2,0.6c0.6,0,1.2-0.1,1.7-0.2
			c0.5-0.1,0.9-0.3,1.2-0.5c0.3-0.2,0.6-0.4,0.7-0.7c0.2-0.3,0.2-0.6,0.2-0.9c0-0.4-0.1-0.8-0.4-1.2s-0.6-0.7-1-1
			c-0.4-0.3-0.9-0.6-1.5-0.8c-0.6-0.3-1.2-0.5-1.9-0.8c-1.8-0.7-3.1-1.6-3.9-2.7c-0.9-1.1-1.3-2.3-1.3-3.8c0-1.2,0.2-2.2,0.7-3
			c0.5-0.8,1.1-1.5,1.9-2.1c0.8-0.5,1.7-0.9,2.8-1.2c1.1-0.3,2.2-0.4,3.4-0.4c1.2,0,2.2,0.1,3.1,0.2c0.9,0.1,1.7,0.4,2.5,0.6v4.7
			c-0.4-0.3-0.8-0.5-1.2-0.7c-0.4-0.2-0.9-0.4-1.4-0.5c-0.5-0.1-0.9-0.2-1.4-0.3c-0.5-0.1-0.9-0.1-1.3-0.1c-0.6,0-1.1,0.1-1.6,0.2
			s-0.9,0.3-1.2,0.5c-0.3,0.2-0.6,0.4-0.8,0.7c-0.2,0.3-0.3,0.6-0.3,0.9c0,0.4,0.1,0.7,0.3,1c0.2,0.3,0.5,0.6,0.8,0.8
			c0.4,0.3,0.8,0.5,1.3,0.8c0.5,0.3,1.1,0.5,1.8,0.8c0.9,0.4,1.7,0.8,2.4,1.2c0.7,0.4,1.3,0.9,1.8,1.4c0.5,0.5,0.9,1.1,1.2,1.8
			c0.3,0.7,0.4,1.5,0.4,2.4c0,1.3-0.2,2.3-0.7,3.1c-0.5,0.8-1.1,1.5-1.9,2.1c-0.8,0.5-1.8,0.9-2.8,1.1s-2.2,0.3-3.4,0.3
			c-1.2,0-2.4-0.1-3.5-0.3S40.9,125.3,40.1,124.9z"/>
		<path class="st3" d="M75.2,125c-1.6,0.8-3.8,1.2-6.4,1.2c-3.4,0-6.1-1-8.1-3c-2-2-3-4.7-3-8.1c0-3.6,1.1-6.5,3.3-8.7
			c2.2-2.2,5.1-3.3,8.6-3.3c2.2,0,4,0.3,5.5,0.8v4.9c-1.5-0.9-3.2-1.3-5.1-1.3c-2.1,0-3.8,0.7-5.1,2c-1.3,1.3-1.9,3.1-1.9,5.4
			c0,2.2,0.6,3.9,1.8,5.2c1.2,1.3,2.9,1.9,4.9,1.9c2,0,3.8-0.5,5.4-1.4V125z"/>
		<path class="st3" d="M88.1,126.2c-3.2,0-5.8-1-7.8-3.1c-2-2.1-3-4.8-3-8.2c0-3.5,1-6.4,3.1-8.6c2.1-2.2,4.8-3.3,8.2-3.3
			c3.2,0,5.8,1,7.8,3.1c2,2.1,3,4.9,3,8.3c0,3.5-1,6.4-3.1,8.5S91.4,126.2,88.1,126.2z M88.4,107.3c-1.8,0-3.2,0.7-4.2,2
			c-1,1.3-1.6,3.1-1.6,5.3c0,2.2,0.5,4,1.6,5.3c1,1.3,2.4,1.9,4.1,1.9c1.7,0,3.1-0.6,4.1-1.9c1-1.3,1.5-3,1.5-5.2
			c0-2.3-0.5-4.1-1.5-5.4C91.4,108,90.1,107.3,88.4,107.3z"/>
		<path class="st3" d="M121.3,124.3c-2.2,1.3-4.9,1.9-8.2,1.9c-3.6,0-6.4-1-8.5-3c-2.1-2-3.1-4.7-3.1-8.2c0-3.5,1.1-6.4,3.4-8.6
			c2.3-2.2,5.3-3.3,9.1-3.3c2.4,0,4.5,0.3,6.3,1v4.7c-1.7-1-3.8-1.5-6.3-1.5c-2.1,0-3.8,0.7-5.1,2c-1.3,1.4-2,3.2-2,5.4
			c0,2.3,0.6,4.1,1.8,5.3c1.2,1.3,2.8,1.9,4.8,1.9c1.2,0,2.2-0.2,2.9-0.5V117h-4.5v-4h9.5V124.3z"/>
	</g>
</g>
<g id="LABEL" class="st0">
	<g class="st1">
		<rect x="1" y="102.1" class="st2" width="128" height="32.9"/>
		<path class="st3" d="M22.4,125.8h-5.8l-3.5-5.8c-0.3-0.4-0.5-0.8-0.8-1.2c-0.2-0.3-0.5-0.6-0.7-0.9c-0.2-0.2-0.5-0.4-0.8-0.6
			c-0.3-0.1-0.6-0.2-0.9-0.2H8.6v8.6h-5v-22.4h8c5.4,0,8.2,2,8.2,6.1c0,0.8-0.1,1.5-0.4,2.2c-0.2,0.7-0.6,1.3-1,1.8s-1,1-1.6,1.4
			c-0.6,0.4-1.3,0.7-2.1,0.9v0.1c0.3,0.1,0.7,0.3,1,0.5s0.6,0.5,0.9,0.8c0.3,0.3,0.6,0.6,0.8,1s0.5,0.7,0.7,1.1L22.4,125.8z
			 M8.6,107.2v6.2h2.2c1.1,0,2-0.3,2.6-0.9c0.7-0.6,1-1.4,1-2.4c0-2-1.2-2.9-3.5-2.9H8.6z"/>
		<path class="st3" d="M37.9,125.8H24.5v-22.4h12.9v4.1h-7.9v5h7.3v4.1h-7.3v5.1h8.4V125.8z"/>
		<path class="st3" d="M57.5,125c-1.6,0.8-3.8,1.2-6.4,1.2c-3.4,0-6.1-1-8.1-3c-2-2-3-4.7-3-8.1c0-3.6,1.1-6.5,3.3-8.7
			c2.2-2.2,5.1-3.3,8.6-3.3c2.2,0,4,0.3,5.5,0.8v4.9c-1.5-0.9-3.2-1.3-5.1-1.3c-2.1,0-3.8,0.7-5.1,2c-1.3,1.3-1.9,3.1-1.9,5.4
			c0,2.2,0.6,3.9,1.8,5.2c1.2,1.3,2.9,1.9,4.9,1.9c2,0,3.8-0.5,5.4-1.4V125z"/>
		<path class="st3" d="M70.5,126.2c-3.2,0-5.8-1-7.8-3.1c-2-2.1-3-4.8-3-8.2c0-3.5,1-6.4,3.1-8.6c2.1-2.2,4.8-3.3,8.2-3.3
			c3.2,0,5.8,1,7.8,3.1c2,2.1,3,4.9,3,8.3c0,3.5-1,6.4-3.1,8.5S73.8,126.2,70.5,126.2z M70.8,107.3c-1.8,0-3.2,0.7-4.2,2
			c-1,1.3-1.6,3.1-1.6,5.3c0,2.2,0.5,4,1.6,5.3c1,1.3,2.4,1.9,4.1,1.9c1.7,0,3.1-0.6,4.1-1.9c1-1.3,1.5-3,1.5-5.2
			c0-2.3-0.5-4.1-1.5-5.4C73.8,108,72.5,107.3,70.8,107.3z"/>
		<path class="st3" d="M104.1,125.8h-5.8l-3.5-5.8c-0.3-0.4-0.5-0.8-0.8-1.2c-0.2-0.3-0.5-0.6-0.7-0.9c-0.2-0.2-0.5-0.4-0.8-0.6
			c-0.3-0.1-0.6-0.2-0.9-0.2h-1.4v8.6h-5v-22.4h8c5.4,0,8.2,2,8.2,6.1c0,0.8-0.1,1.5-0.4,2.2c-0.2,0.7-0.6,1.3-1,1.8s-1,1-1.6,1.4
			c-0.6,0.4-1.3,0.7-2.1,0.9v0.1c0.3,0.1,0.7,0.3,1,0.5s0.6,0.5,0.9,0.8c0.3,0.3,0.6,0.6,0.8,1s0.5,0.7,0.7,1.1L104.1,125.8z
			 M90.4,107.2v6.2h2.2c1.1,0,2-0.3,2.6-0.9c0.7-0.6,1-1.4,1-2.4c0-2-1.2-2.9-3.5-2.9H90.4z"/>
		<path class="st3" d="M106.2,125.8v-22.4h7.9c8,0,11.9,3.6,11.9,10.9c0,3.5-1.1,6.3-3.3,8.4c-2.2,2.1-5.1,3.1-8.7,3.1H106.2z
			 M111.3,107.5v14.2h2.5c2.2,0,3.9-0.7,5.1-2c1.2-1.3,1.9-3.1,1.9-5.4c0-2.1-0.6-3.8-1.9-5c-1.2-1.2-3-1.8-5.2-1.8H111.3z"/>
	</g>
	<g class="st1">
		<path class="st3" d="M125.4,81.9v13.3H103v-5h18.3v-8.3H125.4z"/>
		<path class="st3" d="M125.4,58.5V64l-5,1.6v8l5,1.6v5.5L103,72.5v-6L125.4,58.5z M116.5,66.8l-7.5,2.4c-0.6,0.2-1.2,0.3-2,0.4v0.1
			c0.7,0.1,1.3,0.2,2,0.4l7.6,2.4V66.8z"/>
		<path class="st3" d="M125.4,55.7H103v-8.2c0-2.5,0.5-4.4,1.4-5.8s2.2-2,3.9-2c1.2,0,2.3,0.4,3.2,1.2c0.9,0.8,1.5,1.9,1.9,3.1h0.1
			c0.2-1.6,0.8-2.9,1.8-3.8s2.2-1.4,3.6-1.4c2.1,0,3.7,0.7,4.9,2.2s1.8,3.5,1.8,6V55.7z M106.7,50.7h5.3v-2.2c0-1-0.3-1.9-0.8-2.5
			c-0.5-0.6-1.2-0.9-2.1-0.9c-1.6,0-2.5,1.2-2.5,3.7V50.7z M115.7,50.7h5.9v-2.7c0-1.2-0.3-2.1-0.8-2.7c-0.5-0.7-1.3-1-2.2-1
			c-0.9,0-1.6,0.3-2.1,1c-0.5,0.7-0.8,1.6-0.8,2.7V50.7z"/>
		<path class="st3" d="M125.4,21.8v13.4H103V22.3h4.1v7.9h5v-7.3h4.1v7.3h5.1v-8.4H125.4z"/>
		<path class="st3" d="M125.4,4.8v13.3H103v-5h18.3V4.8H125.4z"/>
	</g>
	<g class="st1">
		<path class="st3" d="M48,4C22.6,4,2,24.6,2,50c0,25.4,20.6,46,46,46s46-20.6,46-46C94,24.6,73.4,4,48,4z M48,74
			c-13.3,0-24-10.7-24-24s10.7-24,24-24s24,10.7,24,24S61.3,74,48,74z"/>
	</g>
	<circle class="st4" cx="48" cy="50" r="7"/>
</g>
<g id="STAFF_PICKS" class="st0">
	<g class="st1">
		<rect x="7.6" y="82.1" class="st2" width="128" height="32.9"/>
		<path class="st3" d="M9.2,104.9v-5c0.9,0.8,1.9,1.3,3,1.7c1.1,0.4,2.1,0.6,3.2,0.6c0.6,0,1.2-0.1,1.7-0.2c0.5-0.1,0.9-0.3,1.2-0.5
			c0.3-0.2,0.6-0.4,0.7-0.7c0.2-0.3,0.2-0.6,0.2-0.9c0-0.4-0.1-0.8-0.4-1.2s-0.6-0.7-1-1c-0.4-0.3-0.9-0.6-1.5-0.8
			c-0.6-0.3-1.2-0.5-1.9-0.8c-1.8-0.7-3.1-1.6-3.9-2.7c-0.9-1.1-1.3-2.3-1.3-3.8c0-1.2,0.2-2.2,0.7-3c0.5-0.8,1.1-1.5,1.9-2.1
			c0.8-0.5,1.7-0.9,2.8-1.2c1.1-0.3,2.2-0.4,3.4-0.4c1.2,0,2.2,0.1,3.1,0.2c0.9,0.1,1.7,0.4,2.5,0.6v4.7c-0.4-0.3-0.8-0.5-1.2-0.7
			c-0.4-0.2-0.9-0.4-1.4-0.5c-0.5-0.1-0.9-0.2-1.4-0.3C19,87,18.6,87,18.1,87c-0.6,0-1.1,0.1-1.6,0.2s-0.9,0.3-1.2,0.5
			c-0.3,0.2-0.6,0.4-0.8,0.7c-0.2,0.3-0.3,0.6-0.3,0.9c0,0.4,0.1,0.7,0.3,1c0.2,0.3,0.5,0.6,0.8,0.8c0.4,0.3,0.8,0.5,1.3,0.8
			c0.5,0.3,1.1,0.5,1.8,0.8c0.9,0.4,1.7,0.8,2.4,1.2c0.7,0.4,1.3,0.9,1.8,1.4c0.5,0.5,0.9,1.1,1.2,1.8c0.3,0.7,0.4,1.5,0.4,2.4
			c0,1.3-0.2,2.3-0.7,3.1c-0.5,0.8-1.1,1.5-1.9,2.1c-0.8,0.5-1.8,0.9-2.8,1.1s-2.2,0.3-3.4,0.3c-1.2,0-2.4-0.1-3.5-0.3
			S10,105.3,9.2,104.9z"/>
		<path class="st3" d="M43.9,87.5h-6.4v18.3h-5.1V87.5H26v-4.1h17.8V87.5z"/>
		<path class="st3" d="M64.3,105.8h-5.5l-1.6-5h-8l-1.6,5h-5.5l8.2-22.4h6L64.3,105.8z M56.1,96.9l-2.4-7.5c-0.2-0.6-0.3-1.2-0.4-2
			h-0.1c-0.1,0.7-0.2,1.3-0.4,2l-2.4,7.6H56.1z"/>
		<path class="st3" d="M80.1,87.5h-7.9V93h7.3v4.1h-7.3v8.7h-5V83.4h13V87.5z"/>
		<path class="st3" d="M96.7,87.5h-7.9V93h7.3v4.1h-7.3v8.7h-5V83.4h13V87.5z"/>
	</g>
	<g class="st1">
		<path class="st3" d="M39,117.6v7.7h-5v-22.4h7.9c5.6,0,8.5,2.4,8.5,7.1c0,2.3-0.8,4.1-2.4,5.5c-1.6,1.4-3.8,2.1-6.5,2.1H39z
			 M39,106.8v7h2c2.7,0,4-1.2,4-3.5c0-2.3-1.3-3.5-4-3.5H39z"/>
		<path class="st3" d="M58.7,125.3h-5v-22.4h5V125.3z"/>
		<path class="st3" d="M79.8,124.5c-1.6,0.8-3.8,1.2-6.4,1.2c-3.4,0-6.1-1-8.1-3c-2-2-3-4.7-3-8.1c0-3.6,1.1-6.5,3.3-8.7
			c2.2-2.2,5.1-3.3,8.6-3.3c2.2,0,4,0.3,5.5,0.8v4.9c-1.5-0.9-3.2-1.3-5.1-1.3c-2.1,0-3.8,0.7-5.1,2c-1.3,1.3-1.9,3.1-1.9,5.4
			c0,2.2,0.6,3.9,1.8,5.2c1.2,1.3,2.9,1.9,4.9,1.9c2,0,3.8-0.5,5.4-1.4V124.5z"/>
		<path class="st3" d="M102.4,125.3H96l-6.5-9.7c-0.1-0.2-0.3-0.6-0.6-1.2h-0.1v11h-5v-22.4h5v10.6h0.1c0.1-0.3,0.3-0.7,0.6-1.3
			l6.2-9.3h6l-7.8,10.7L102.4,125.3z"/>
		<path class="st3" d="M103.5,124.4v-5c0.9,0.8,1.9,1.3,3,1.7c1.1,0.4,2.1,0.6,3.2,0.6c0.6,0,1.2-0.1,1.7-0.2
			c0.5-0.1,0.9-0.3,1.2-0.5c0.3-0.2,0.6-0.4,0.7-0.7c0.2-0.3,0.2-0.6,0.2-0.9c0-0.4-0.1-0.8-0.4-1.2s-0.6-0.7-1-1
			c-0.4-0.3-0.9-0.6-1.5-0.8c-0.6-0.3-1.2-0.5-1.9-0.8c-1.8-0.7-3.1-1.6-3.9-2.7c-0.9-1.1-1.3-2.3-1.3-3.8c0-1.2,0.2-2.2,0.7-3
			c0.5-0.8,1.1-1.5,1.9-2.1c0.8-0.5,1.7-0.9,2.8-1.2c1.1-0.3,2.2-0.4,3.4-0.4c1.2,0,2.2,0.1,3.1,0.2c0.9,0.1,1.7,0.4,2.5,0.6v4.7
			c-0.4-0.3-0.8-0.5-1.2-0.7c-0.4-0.2-0.9-0.4-1.4-0.5c-0.5-0.1-0.9-0.2-1.4-0.3c-0.5-0.1-0.9-0.1-1.3-0.1c-0.6,0-1.1,0.1-1.6,0.2
			s-0.9,0.3-1.2,0.5c-0.3,0.2-0.6,0.4-0.8,0.7c-0.2,0.3-0.3,0.6-0.3,0.9c0,0.4,0.1,0.7,0.3,1c0.2,0.3,0.5,0.6,0.8,0.8
			c0.4,0.3,0.8,0.5,1.3,0.8c0.5,0.3,1.1,0.5,1.8,0.8c0.9,0.4,1.7,0.8,2.4,1.2c0.7,0.4,1.3,0.9,1.8,1.4c0.5,0.5,0.9,1.1,1.2,1.8
			c0.3,0.7,0.4,1.5,0.4,2.4c0,1.3-0.2,2.3-0.7,3.1c-0.5,0.8-1.1,1.5-1.9,2.1c-0.8,0.5-1.8,0.9-2.8,1.1s-2.2,0.3-3.4,0.3
			c-1.2,0-2.4-0.1-3.5-0.3S104.3,124.9,103.5,124.4z"/>
	</g>
</g>
<g id="CHARTS" class="st0">
	<g class="st1">
		<rect y="102.1" class="st2" width="128" height="32.9"/>
		<path class="st3" d="M20.7,125c-1.6,0.8-3.8,1.2-6.4,1.2c-3.4,0-6.1-1-8.1-3c-2-2-3-4.7-3-8.1c0-3.6,1.1-6.5,3.3-8.7
			c2.2-2.2,5.1-3.3,8.6-3.3c2.2,0,4,0.3,5.5,0.8v4.9c-1.5-0.9-3.2-1.3-5.1-1.3c-2.1,0-3.8,0.7-5.1,2c-1.3,1.3-1.9,3.1-1.9,5.4
			c0,2.2,0.6,3.9,1.8,5.2c1.2,1.3,2.9,1.9,4.9,1.9c2,0,3.8-0.5,5.4-1.4V125z"/>
		<path class="st3" d="M44,125.8h-5.1v-9.1h-9.3v9.1h-5v-22.4h5v8.9h9.3v-8.9H44V125.8z"/>
		<path class="st3" d="M68.8,125.8h-5.5l-1.6-5h-8l-1.6,5h-5.5l8.2-22.4h6L68.8,125.8z M60.5,116.9l-2.4-7.5c-0.2-0.6-0.3-1.2-0.4-2
			h-0.1c-0.1,0.7-0.2,1.3-0.4,2l-2.4,7.6H60.5z"/>
		<path class="st3" d="M90.4,125.8h-5.8l-3.5-5.8c-0.3-0.4-0.5-0.8-0.8-1.2c-0.2-0.3-0.5-0.6-0.7-0.9c-0.2-0.2-0.5-0.4-0.8-0.6
			c-0.3-0.1-0.6-0.2-0.9-0.2h-1.4v8.6h-5v-22.4h8c5.4,0,8.2,2,8.2,6.1c0,0.8-0.1,1.5-0.4,2.2c-0.2,0.7-0.6,1.3-1,1.8s-1,1-1.6,1.4
			c-0.6,0.4-1.3,0.7-2.1,0.9v0.1c0.3,0.1,0.7,0.3,1,0.5s0.6,0.5,0.9,0.8c0.3,0.3,0.6,0.6,0.8,1s0.5,0.7,0.7,1.1L90.4,125.8z
			 M76.6,107.2v6.2h2.2c1.1,0,2-0.3,2.6-0.9c0.7-0.6,1-1.4,1-2.4c0-2-1.2-2.9-3.5-2.9H76.6z"/>
		<path class="st3" d="M107.6,107.5h-6.4v18.3h-5.1v-18.3h-6.4v-4.1h17.8V107.5z"/>
		<path class="st3" d="M109.6,124.9v-5c0.9,0.8,1.9,1.3,3,1.7c1.1,0.4,2.1,0.6,3.2,0.6c0.6,0,1.2-0.1,1.7-0.2
			c0.5-0.1,0.9-0.3,1.2-0.5c0.3-0.2,0.6-0.4,0.7-0.7c0.2-0.3,0.2-0.6,0.2-0.9c0-0.4-0.1-0.8-0.4-1.2s-0.6-0.7-1-1
			c-0.4-0.3-0.9-0.6-1.5-0.8c-0.6-0.3-1.2-0.5-1.9-0.8c-1.8-0.7-3.1-1.6-3.9-2.7c-0.9-1.1-1.3-2.3-1.3-3.8c0-1.2,0.2-2.2,0.7-3
			c0.5-0.8,1.1-1.5,1.9-2.1c0.8-0.5,1.7-0.9,2.8-1.2c1.1-0.3,2.2-0.4,3.4-0.4c1.2,0,2.2,0.1,3.1,0.2c0.9,0.1,1.7,0.4,2.5,0.6v4.7
			c-0.4-0.3-0.8-0.5-1.2-0.7c-0.4-0.2-0.9-0.4-1.4-0.5c-0.5-0.1-0.9-0.2-1.4-0.3c-0.5-0.1-0.9-0.1-1.3-0.1c-0.6,0-1.1,0.1-1.6,0.2
			s-0.9,0.3-1.2,0.5c-0.3,0.2-0.6,0.4-0.8,0.7c-0.2,0.3-0.3,0.6-0.3,0.9c0,0.4,0.1,0.7,0.3,1c0.2,0.3,0.5,0.6,0.8,0.8
			c0.4,0.3,0.8,0.5,1.3,0.8c0.5,0.3,1.1,0.5,1.8,0.8c0.9,0.4,1.7,0.8,2.4,1.2c0.7,0.4,1.3,0.9,1.8,1.4c0.5,0.5,0.9,1.1,1.2,1.8
			c0.3,0.7,0.4,1.5,0.4,2.4c0,1.3-0.2,2.3-0.7,3.1c-0.5,0.8-1.1,1.5-1.9,2.1c-0.8,0.5-1.8,0.9-2.8,1.1s-2.2,0.3-3.4,0.3
			c-1.2,0-2.4-0.1-3.5-0.3S110.4,125.3,109.6,124.9z"/>
	</g>
</g>
<g id="ARTIST" class="st0">
	<g class="st1">
		<rect y="102.1" class="st2" width="128" height="32.9"/>
		<path class="st3" d="M32.1,125.8h-5.5l-1.6-5h-8l-1.6,5H10l8.2-22.4h6L32.1,125.8z M23.9,116.9l-2.4-7.5c-0.2-0.6-0.3-1.2-0.4-2
			h-0.1c-0.1,0.7-0.2,1.3-0.4,2l-2.4,7.6H23.9z"/>
		<path class="st3" d="M53.7,125.8h-5.8l-3.5-5.8c-0.3-0.4-0.5-0.8-0.8-1.2c-0.2-0.3-0.5-0.6-0.7-0.9c-0.2-0.2-0.5-0.4-0.8-0.6
			c-0.3-0.1-0.6-0.2-0.9-0.2h-1.4v8.6h-5v-22.4h8c5.4,0,8.2,2,8.2,6.1c0,0.8-0.1,1.5-0.4,2.2c-0.2,0.7-0.6,1.3-1,1.8s-1,1-1.6,1.4
			c-0.6,0.4-1.3,0.7-2.1,0.9v0.1c0.3,0.1,0.7,0.3,1,0.5s0.6,0.5,0.9,0.8c0.3,0.3,0.6,0.6,0.8,1s0.5,0.7,0.7,1.1L53.7,125.8z
			 M39.9,107.2v6.2h2.2c1.1,0,2-0.3,2.6-0.9c0.7-0.6,1-1.4,1-2.4c0-2-1.2-2.9-3.5-2.9H39.9z"/>
		<path class="st3" d="M70.9,107.5h-6.4v18.3h-5.1v-18.3h-6.4v-4.1h17.8V107.5z"/>
		<path class="st3" d="M78.9,125.8h-5v-22.4h5V125.8z"/>
		<path class="st3" d="M83,124.9v-5c0.9,0.8,1.9,1.3,3,1.7c1.1,0.4,2.1,0.6,3.2,0.6c0.6,0,1.2-0.1,1.7-0.2c0.5-0.1,0.9-0.3,1.2-0.5
			c0.3-0.2,0.6-0.4,0.7-0.7c0.2-0.3,0.2-0.6,0.2-0.9c0-0.4-0.1-0.8-0.4-1.2s-0.6-0.7-1-1c-0.4-0.3-0.9-0.6-1.5-0.8
			c-0.6-0.3-1.2-0.5-1.9-0.8c-1.8-0.7-3.1-1.6-3.9-2.7c-0.9-1.1-1.3-2.3-1.3-3.8c0-1.2,0.2-2.2,0.7-3c0.5-0.8,1.1-1.5,1.9-2.1
			c0.8-0.5,1.7-0.9,2.8-1.2c1.1-0.3,2.2-0.4,3.4-0.4c1.2,0,2.2,0.1,3.1,0.2c0.9,0.1,1.7,0.4,2.5,0.6v4.7c-0.4-0.3-0.8-0.5-1.2-0.7
			c-0.4-0.2-0.9-0.4-1.4-0.5c-0.5-0.1-0.9-0.2-1.4-0.3c-0.5-0.1-0.9-0.1-1.3-0.1c-0.6,0-1.1,0.1-1.6,0.2s-0.9,0.3-1.2,0.5
			c-0.3,0.2-0.6,0.4-0.8,0.7c-0.2,0.3-0.3,0.6-0.3,0.9c0,0.4,0.1,0.7,0.3,1c0.2,0.3,0.5,0.6,0.8,0.8c0.4,0.3,0.8,0.5,1.3,0.8
			c0.5,0.3,1.1,0.5,1.8,0.8c0.9,0.4,1.7,0.8,2.4,1.2c0.7,0.4,1.3,0.9,1.8,1.4c0.5,0.5,0.9,1.1,1.2,1.8c0.3,0.7,0.4,1.5,0.4,2.4
			c0,1.3-0.2,2.3-0.7,3.1c-0.5,0.8-1.1,1.5-1.9,2.1c-0.8,0.5-1.8,0.9-2.8,1.1s-2.2,0.3-3.4,0.3c-1.2,0-2.4-0.1-3.5-0.3
			S83.8,125.3,83,124.9z"/>
		<path class="st3" d="M117.7,107.5h-6.4v18.3h-5.1v-18.3h-6.4v-4.1h17.8V107.5z"/>
	</g>
</g>
</svg>
